<svg width="28.000000" height="29.000000" viewBox="0 0 28 29" fill="none" xmlns="http://www.w3.org/2000/svg" xmlns:xlink="http://www.w3.org/1999/xlink">
	<desc>
			Created with Pixso.
	</desc>
	<defs/>
	<path id="Star 2" d="M10.56 6.43L4.17 3.39L6.06 10.2L-0.78 11.98L5.04 15.99L0.94 21.75L7.98 21.07L8.54 28.12L13.5 23.08L18.45 28.12L19.01 21.07L26.05 21.75L21.95 15.99L27.77 11.98L20.93 10.2L22.82 3.39L16.43 6.43L13.5 0L10.56 6.43ZM13.5 2.4L11.05 7.77L5.72 5.23L7.3 10.92L1.59 12.4L6.45 15.74L3.02 20.54L8.89 19.98L9.36 25.86L13.5 21.65L17.63 25.86L18.1 19.98L23.97 20.54L20.54 15.74L25.4 12.4L19.69 10.92L21.27 5.23L15.94 7.77L13.5 2.4Z" fill="#FFFFFF" fill-opacity="1.000000" fill-rule="evenodd"/>
</svg>
