<svg width="152" height="15" viewBox="0 0 152 15" fill="none" xmlns="http://www.w3.org/2000/svg">
<g filter="url(#filter0_d_4_660)">
<mask id="path-1-outside-1_4_660" maskUnits="userSpaceOnUse" x="3" y="-1" width="147" height="9" fill="black">
<rect fill="white" x="3" y="-1" width="147" height="9"/>
<path d="M4.584 6.896C4.744 4.88 5.304 3.28 6.264 2.096C7.224 0.879999 8.552 0.271999 10.248 0.271999C11.048 0.271999 11.832 0.431999 12.6 0.751999C13.368 1.072 14.104 1.424 14.808 1.808C15.544 2.192 16.232 2.544 16.872 2.864C17.544 3.152 18.152 3.296 18.696 3.296C19.432 3.296 20.04 3.04 20.52 2.528C21 1.984 21.304 1.248 21.432 0.319999H24.696C24.568 2.24 24.024 3.824 23.064 5.072C22.104 6.288 20.76 6.896 19.032 6.896C18.232 6.896 17.448 6.736 16.68 6.416C15.912 6.096 15.16 5.744 14.424 5.36C13.72 4.976 13.048 4.64 12.408 4.352C11.768 4.032 11.176 3.872 10.632 3.872C9.896 3.872 9.288 4.144 8.808 4.688C8.36 5.2 8.056 5.936 7.896 6.896H4.584ZM18.2809 6.896C18.4409 4.88 19.0009 3.28 19.9609 2.096C20.9209 0.879999 22.2489 0.271999 23.9449 0.271999C24.7449 0.271999 25.5289 0.431999 26.2969 0.751999C27.0649 1.072 27.8009 1.424 28.5049 1.808C29.2409 2.192 29.9289 2.544 30.5689 2.864C31.2409 3.152 31.8489 3.296 32.3929 3.296C33.1289 3.296 33.7369 3.04 34.2169 2.528C34.6969 1.984 35.0009 1.248 35.1289 0.319999H38.3929C38.2649 2.24 37.7209 3.824 36.7609 5.072C35.8009 6.288 34.4569 6.896 32.7289 6.896C31.9289 6.896 31.1449 6.736 30.3769 6.416C29.6089 6.096 28.8569 5.744 28.1209 5.36C27.4169 4.976 26.7449 4.64 26.1049 4.352C25.4649 4.032 24.8729 3.872 24.3289 3.872C23.5929 3.872 22.9849 4.144 22.5049 4.688C22.0569 5.2 21.7529 5.936 21.5929 6.896H18.2809ZM31.9777 6.896C32.1377 4.88 32.6977 3.28 33.6577 2.096C34.6177 0.879999 35.9457 0.271999 37.6417 0.271999C38.4417 0.271999 39.2257 0.431999 39.9937 0.751999C40.7617 1.072 41.4977 1.424 42.2017 1.808C42.9378 2.192 43.6258 2.544 44.2657 2.864C44.9377 3.152 45.5457 3.296 46.0898 3.296C46.8258 3.296 47.4338 3.04 47.9137 2.528C48.3938 1.984 48.6978 1.248 48.8257 0.319999H52.0898C51.9618 2.24 51.4177 3.824 50.4577 5.072C49.4977 6.288 48.1537 6.896 46.4258 6.896C45.6258 6.896 44.8418 6.736 44.0738 6.416C43.3057 6.096 42.5537 5.744 41.8177 5.36C41.1137 4.976 40.4417 4.64 39.8017 4.352C39.1617 4.032 38.5697 3.872 38.0257 3.872C37.2897 3.872 36.6817 4.144 36.2017 4.688C35.7537 5.2 35.4497 5.936 35.2897 6.896H31.9777ZM45.6746 6.896C45.8346 4.88 46.3946 3.28 47.3546 2.096C48.3146 0.879999 49.6426 0.271999 51.3386 0.271999C52.1386 0.271999 52.9226 0.431999 53.6906 0.751999C54.4586 1.072 55.1946 1.424 55.8986 1.808C56.6346 2.192 57.3226 2.544 57.9626 2.864C58.6346 3.152 59.2426 3.296 59.7866 3.296C60.5226 3.296 61.1306 3.04 61.6106 2.528C62.0906 1.984 62.3946 1.248 62.5226 0.319999H65.7866C65.6586 2.24 65.1146 3.824 64.1546 5.072C63.1946 6.288 61.8506 6.896 60.1226 6.896C59.3226 6.896 58.5386 6.736 57.7706 6.416C57.0026 6.096 56.2506 5.744 55.5146 5.36C54.8106 4.976 54.1386 4.64 53.4986 4.352C52.8586 4.032 52.2666 3.872 51.7226 3.872C50.9866 3.872 50.3786 4.144 49.8986 4.688C49.4506 5.2 49.1466 5.936 48.9866 6.896H45.6746ZM59.3715 6.896C59.5315 4.88 60.0915 3.28 61.0515 2.096C62.0115 0.879999 63.3395 0.271999 65.0355 0.271999C65.8355 0.271999 66.6195 0.431999 67.3875 0.751999C68.1555 1.072 68.8915 1.424 69.5955 1.808C70.3315 2.192 71.0195 2.544 71.6595 2.864C72.3315 3.152 72.9395 3.296 73.4835 3.296C74.2195 3.296 74.8275 3.04 75.3075 2.528C75.7875 1.984 76.0915 1.248 76.2195 0.319999H79.4835C79.3555 2.24 78.8115 3.824 77.8515 5.072C76.8915 6.288 75.5475 6.896 73.8195 6.896C73.0195 6.896 72.2355 6.736 71.4675 6.416C70.6995 6.096 69.9475 5.744 69.2115 5.36C68.5075 4.976 67.8355 4.64 67.1955 4.352C66.5555 4.032 65.9635 3.872 65.4195 3.872C64.6835 3.872 64.0755 4.144 63.5955 4.688C63.1475 5.2 62.8435 5.936 62.6835 6.896H59.3715ZM73.0684 6.896C73.2284 4.88 73.7884 3.28 74.7484 2.096C75.7084 0.879999 77.0364 0.271999 78.7324 0.271999C79.5324 0.271999 80.3164 0.431999 81.0844 0.751999C81.8524 1.072 82.5884 1.424 83.2924 1.808C84.0284 2.192 84.7164 2.544 85.3564 2.864C86.0284 3.152 86.6364 3.296 87.1804 3.296C87.9164 3.296 88.5244 3.04 89.0044 2.528C89.4844 1.984 89.7884 1.248 89.9164 0.319999H93.1804C93.0524 2.24 92.5084 3.824 91.5484 5.072C90.5884 6.288 89.2444 6.896 87.5164 6.896C86.7164 6.896 85.9324 6.736 85.1644 6.416C84.3964 6.096 83.6444 5.744 82.9084 5.36C82.2044 4.976 81.5324 4.64 80.8924 4.352C80.2524 4.032 79.6604 3.872 79.1164 3.872C78.3804 3.872 77.7724 4.144 77.2924 4.688C76.8444 5.2 76.5404 5.936 76.3804 6.896H73.0684ZM86.7652 6.896C86.9252 4.88 87.4852 3.28 88.4452 2.096C89.4052 0.879999 90.7332 0.271999 92.4292 0.271999C93.2292 0.271999 94.0132 0.431999 94.7812 0.751999C95.5492 1.072 96.2852 1.424 96.9892 1.808C97.7252 2.192 98.4132 2.544 99.0532 2.864C99.7252 3.152 100.333 3.296 100.877 3.296C101.613 3.296 102.221 3.04 102.701 2.528C103.181 1.984 103.485 1.248 103.613 0.319999H106.877C106.749 2.24 106.205 3.824 105.245 5.072C104.285 6.288 102.941 6.896 101.213 6.896C100.413 6.896 99.6292 6.736 98.8612 6.416C98.0932 6.096 97.3412 5.744 96.6052 5.36C95.9012 4.976 95.2292 4.64 94.5892 4.352C93.9492 4.032 93.3572 3.872 92.8132 3.872C92.0772 3.872 91.4692 4.144 90.9892 4.688C90.5412 5.2 90.2372 5.936 90.0772 6.896H86.7652ZM100.462 6.896C100.622 4.88 101.182 3.28 102.142 2.096C103.102 0.879999 104.43 0.271999 106.126 0.271999C106.926 0.271999 107.71 0.431999 108.478 0.751999C109.246 1.072 109.982 1.424 110.686 1.808C111.422 2.192 112.11 2.544 112.75 2.864C113.422 3.152 114.03 3.296 114.574 3.296C115.31 3.296 115.918 3.04 116.398 2.528C116.878 1.984 117.182 1.248 117.31 0.319999H120.574C120.446 2.24 119.902 3.824 118.942 5.072C117.982 6.288 116.638 6.896 114.91 6.896C114.11 6.896 113.326 6.736 112.558 6.416C111.79 6.096 111.038 5.744 110.302 5.36C109.598 4.976 108.926 4.64 108.286 4.352C107.646 4.032 107.054 3.872 106.51 3.872C105.774 3.872 105.166 4.144 104.686 4.688C104.238 5.2 103.934 5.936 103.774 6.896H100.462ZM114.159 6.896C114.319 4.88 114.879 3.28 115.839 2.096C116.799 0.879999 118.127 0.271999 119.823 0.271999C120.623 0.271999 121.407 0.431999 122.175 0.751999C122.943 1.072 123.679 1.424 124.383 1.808C125.119 2.192 125.807 2.544 126.447 2.864C127.119 3.152 127.727 3.296 128.271 3.296C129.007 3.296 129.615 3.04 130.095 2.528C130.575 1.984 130.879 1.248 131.007 0.319999H134.271C134.143 2.24 133.599 3.824 132.639 5.072C131.679 6.288 130.335 6.896 128.607 6.896C127.807 6.896 127.023 6.736 126.255 6.416C125.487 6.096 124.735 5.744 123.999 5.36C123.295 4.976 122.623 4.64 121.983 4.352C121.343 4.032 120.751 3.872 120.207 3.872C119.471 3.872 118.863 4.144 118.383 4.688C117.935 5.2 117.631 5.936 117.471 6.896H114.159ZM127.856 6.896C128.016 4.88 128.576 3.28 129.536 2.096C130.496 0.879999 131.824 0.271999 133.52 0.271999C134.32 0.271999 135.104 0.431999 135.872 0.751999C136.64 1.072 137.376 1.424 138.08 1.808C138.816 2.192 139.504 2.544 140.144 2.864C140.816 3.152 141.424 3.296 141.968 3.296C142.704 3.296 143.312 3.04 143.792 2.528C144.272 1.984 144.576 1.248 144.704 0.319999H147.968C147.84 2.24 147.296 3.824 146.336 5.072C145.376 6.288 144.032 6.896 142.304 6.896C141.504 6.896 140.72 6.736 139.952 6.416C139.184 6.096 138.432 5.744 137.696 5.36C136.992 4.976 136.32 4.64 135.68 4.352C135.04 4.032 134.448 3.872 133.904 3.872C133.168 3.872 132.56 4.144 132.08 4.688C131.632 5.2 131.328 5.936 131.168 6.896H127.856Z"/>
</mask>
<path d="M4.584 6.896C4.744 4.88 5.304 3.28 6.264 2.096C7.224 0.879999 8.552 0.271999 10.248 0.271999C11.048 0.271999 11.832 0.431999 12.6 0.751999C13.368 1.072 14.104 1.424 14.808 1.808C15.544 2.192 16.232 2.544 16.872 2.864C17.544 3.152 18.152 3.296 18.696 3.296C19.432 3.296 20.04 3.04 20.52 2.528C21 1.984 21.304 1.248 21.432 0.319999H24.696C24.568 2.24 24.024 3.824 23.064 5.072C22.104 6.288 20.76 6.896 19.032 6.896C18.232 6.896 17.448 6.736 16.68 6.416C15.912 6.096 15.16 5.744 14.424 5.36C13.72 4.976 13.048 4.64 12.408 4.352C11.768 4.032 11.176 3.872 10.632 3.872C9.896 3.872 9.288 4.144 8.808 4.688C8.36 5.2 8.056 5.936 7.896 6.896H4.584ZM18.2809 6.896C18.4409 4.88 19.0009 3.28 19.9609 2.096C20.9209 0.879999 22.2489 0.271999 23.9449 0.271999C24.7449 0.271999 25.5289 0.431999 26.2969 0.751999C27.0649 1.072 27.8009 1.424 28.5049 1.808C29.2409 2.192 29.9289 2.544 30.5689 2.864C31.2409 3.152 31.8489 3.296 32.3929 3.296C33.1289 3.296 33.7369 3.04 34.2169 2.528C34.6969 1.984 35.0009 1.248 35.1289 0.319999H38.3929C38.2649 2.24 37.7209 3.824 36.7609 5.072C35.8009 6.288 34.4569 6.896 32.7289 6.896C31.9289 6.896 31.1449 6.736 30.3769 6.416C29.6089 6.096 28.8569 5.744 28.1209 5.36C27.4169 4.976 26.7449 4.64 26.1049 4.352C25.4649 4.032 24.8729 3.872 24.3289 3.872C23.5929 3.872 22.9849 4.144 22.5049 4.688C22.0569 5.2 21.7529 5.936 21.5929 6.896H18.2809ZM31.9777 6.896C32.1377 4.88 32.6977 3.28 33.6577 2.096C34.6177 0.879999 35.9457 0.271999 37.6417 0.271999C38.4417 0.271999 39.2257 0.431999 39.9937 0.751999C40.7617 1.072 41.4977 1.424 42.2017 1.808C42.9378 2.192 43.6258 2.544 44.2657 2.864C44.9377 3.152 45.5457 3.296 46.0898 3.296C46.8258 3.296 47.4338 3.04 47.9137 2.528C48.3938 1.984 48.6978 1.248 48.8257 0.319999H52.0898C51.9618 2.24 51.4177 3.824 50.4577 5.072C49.4977 6.288 48.1537 6.896 46.4258 6.896C45.6258 6.896 44.8418 6.736 44.0738 6.416C43.3057 6.096 42.5537 5.744 41.8177 5.36C41.1137 4.976 40.4417 4.64 39.8017 4.352C39.1617 4.032 38.5697 3.872 38.0257 3.872C37.2897 3.872 36.6817 4.144 36.2017 4.688C35.7537 5.2 35.4497 5.936 35.2897 6.896H31.9777ZM45.6746 6.896C45.8346 4.88 46.3946 3.28 47.3546 2.096C48.3146 0.879999 49.6426 0.271999 51.3386 0.271999C52.1386 0.271999 52.9226 0.431999 53.6906 0.751999C54.4586 1.072 55.1946 1.424 55.8986 1.808C56.6346 2.192 57.3226 2.544 57.9626 2.864C58.6346 3.152 59.2426 3.296 59.7866 3.296C60.5226 3.296 61.1306 3.04 61.6106 2.528C62.0906 1.984 62.3946 1.248 62.5226 0.319999H65.7866C65.6586 2.24 65.1146 3.824 64.1546 5.072C63.1946 6.288 61.8506 6.896 60.1226 6.896C59.3226 6.896 58.5386 6.736 57.7706 6.416C57.0026 6.096 56.2506 5.744 55.5146 5.36C54.8106 4.976 54.1386 4.64 53.4986 4.352C52.8586 4.032 52.2666 3.872 51.7226 3.872C50.9866 3.872 50.3786 4.144 49.8986 4.688C49.4506 5.2 49.1466 5.936 48.9866 6.896H45.6746ZM59.3715 6.896C59.5315 4.88 60.0915 3.28 61.0515 2.096C62.0115 0.879999 63.3395 0.271999 65.0355 0.271999C65.8355 0.271999 66.6195 0.431999 67.3875 0.751999C68.1555 1.072 68.8915 1.424 69.5955 1.808C70.3315 2.192 71.0195 2.544 71.6595 2.864C72.3315 3.152 72.9395 3.296 73.4835 3.296C74.2195 3.296 74.8275 3.04 75.3075 2.528C75.7875 1.984 76.0915 1.248 76.2195 0.319999H79.4835C79.3555 2.24 78.8115 3.824 77.8515 5.072C76.8915 6.288 75.5475 6.896 73.8195 6.896C73.0195 6.896 72.2355 6.736 71.4675 6.416C70.6995 6.096 69.9475 5.744 69.2115 5.36C68.5075 4.976 67.8355 4.64 67.1955 4.352C66.5555 4.032 65.9635 3.872 65.4195 3.872C64.6835 3.872 64.0755 4.144 63.5955 4.688C63.1475 5.2 62.8435 5.936 62.6835 6.896H59.3715ZM73.0684 6.896C73.2284 4.88 73.7884 3.28 74.7484 2.096C75.7084 0.879999 77.0364 0.271999 78.7324 0.271999C79.5324 0.271999 80.3164 0.431999 81.0844 0.751999C81.8524 1.072 82.5884 1.424 83.2924 1.808C84.0284 2.192 84.7164 2.544 85.3564 2.864C86.0284 3.152 86.6364 3.296 87.1804 3.296C87.9164 3.296 88.5244 3.04 89.0044 2.528C89.4844 1.984 89.7884 1.248 89.9164 0.319999H93.1804C93.0524 2.24 92.5084 3.824 91.5484 5.072C90.5884 6.288 89.2444 6.896 87.5164 6.896C86.7164 6.896 85.9324 6.736 85.1644 6.416C84.3964 6.096 83.6444 5.744 82.9084 5.36C82.2044 4.976 81.5324 4.64 80.8924 4.352C80.2524 4.032 79.6604 3.872 79.1164 3.872C78.3804 3.872 77.7724 4.144 77.2924 4.688C76.8444 5.2 76.5404 5.936 76.3804 6.896H73.0684ZM86.7652 6.896C86.9252 4.88 87.4852 3.28 88.4452 2.096C89.4052 0.879999 90.7332 0.271999 92.4292 0.271999C93.2292 0.271999 94.0132 0.431999 94.7812 0.751999C95.5492 1.072 96.2852 1.424 96.9892 1.808C97.7252 2.192 98.4132 2.544 99.0532 2.864C99.7252 3.152 100.333 3.296 100.877 3.296C101.613 3.296 102.221 3.04 102.701 2.528C103.181 1.984 103.485 1.248 103.613 0.319999H106.877C106.749 2.24 106.205 3.824 105.245 5.072C104.285 6.288 102.941 6.896 101.213 6.896C100.413 6.896 99.6292 6.736 98.8612 6.416C98.0932 6.096 97.3412 5.744 96.6052 5.36C95.9012 4.976 95.2292 4.64 94.5892 4.352C93.9492 4.032 93.3572 3.872 92.8132 3.872C92.0772 3.872 91.4692 4.144 90.9892 4.688C90.5412 5.2 90.2372 5.936 90.0772 6.896H86.7652ZM100.462 6.896C100.622 4.88 101.182 3.28 102.142 2.096C103.102 0.879999 104.43 0.271999 106.126 0.271999C106.926 0.271999 107.71 0.431999 108.478 0.751999C109.246 1.072 109.982 1.424 110.686 1.808C111.422 2.192 112.11 2.544 112.75 2.864C113.422 3.152 114.03 3.296 114.574 3.296C115.31 3.296 115.918 3.04 116.398 2.528C116.878 1.984 117.182 1.248 117.31 0.319999H120.574C120.446 2.24 119.902 3.824 118.942 5.072C117.982 6.288 116.638 6.896 114.91 6.896C114.11 6.896 113.326 6.736 112.558 6.416C111.79 6.096 111.038 5.744 110.302 5.36C109.598 4.976 108.926 4.64 108.286 4.352C107.646 4.032 107.054 3.872 106.51 3.872C105.774 3.872 105.166 4.144 104.686 4.688C104.238 5.2 103.934 5.936 103.774 6.896H100.462ZM114.159 6.896C114.319 4.88 114.879 3.28 115.839 2.096C116.799 0.879999 118.127 0.271999 119.823 0.271999C120.623 0.271999 121.407 0.431999 122.175 0.751999C122.943 1.072 123.679 1.424 124.383 1.808C125.119 2.192 125.807 2.544 126.447 2.864C127.119 3.152 127.727 3.296 128.271 3.296C129.007 3.296 129.615 3.04 130.095 2.528C130.575 1.984 130.879 1.248 131.007 0.319999H134.271C134.143 2.24 133.599 3.824 132.639 5.072C131.679 6.288 130.335 6.896 128.607 6.896C127.807 6.896 127.023 6.736 126.255 6.416C125.487 6.096 124.735 5.744 123.999 5.36C123.295 4.976 122.623 4.64 121.983 4.352C121.343 4.032 120.751 3.872 120.207 3.872C119.471 3.872 118.863 4.144 118.383 4.688C117.935 5.2 117.631 5.936 117.471 6.896H114.159ZM127.856 6.896C128.016 4.88 128.576 3.28 129.536 2.096C130.496 0.879999 131.824 0.271999 133.52 0.271999C134.32 0.271999 135.104 0.431999 135.872 0.751999C136.64 1.072 137.376 1.424 138.08 1.808C138.816 2.192 139.504 2.544 140.144 2.864C140.816 3.152 141.424 3.296 141.968 3.296C142.704 3.296 143.312 3.04 143.792 2.528C144.272 1.984 144.576 1.248 144.704 0.319999H147.968C147.84 2.24 147.296 3.824 146.336 5.072C145.376 6.288 144.032 6.896 142.304 6.896C141.504 6.896 140.72 6.736 139.952 6.416C139.184 6.096 138.432 5.744 137.696 5.36C136.992 4.976 136.32 4.64 135.68 4.352C135.04 4.032 134.448 3.872 133.904 3.872C133.168 3.872 132.56 4.144 132.08 4.688C131.632 5.2 131.328 5.936 131.168 6.896H127.856Z" fill="url(#paint0_linear_4_660)"/>
<path d="M4.584 6.896L3.58713 6.81688L3.50149 7.896H4.584V6.896ZM6.264 2.096L7.04082 2.72585L7.04888 2.71564L6.264 2.096ZM12.6 0.751999L12.2154 1.67508L12.2154 1.67508L12.6 0.751999ZM14.808 1.808L14.3291 2.68589L14.3373 2.69032L14.3454 2.69459L14.808 1.808ZM16.872 2.864L16.4248 3.75842L16.4511 3.77157L16.4781 3.78314L16.872 2.864ZM20.52 2.528L21.2495 3.21194L21.2599 3.20093L21.2698 3.18962L20.52 2.528ZM21.432 0.319999V-0.680001H20.5605L20.4414 0.183362L21.432 0.319999ZM24.696 0.319999L25.6938 0.386518L25.7649 -0.680001H24.696V0.319999ZM23.064 5.072L23.8489 5.69169L23.8566 5.68171L23.064 5.072ZM16.68 6.416L17.0646 5.49292L17.0646 5.49292L16.68 6.416ZM14.424 5.36L13.9451 6.23789L13.9533 6.24232L13.9614 6.24659L14.424 5.36ZM12.408 4.352L11.9608 5.24643L11.979 5.25555L11.9976 5.26392L12.408 4.352ZM8.808 4.688L8.05816 4.02637L8.05542 4.02949L8.808 4.688ZM7.896 6.896V7.896H8.74313L8.88239 7.0604L7.896 6.896ZM5.58087 6.97512C5.73001 5.09583 6.24373 3.70879 7.04076 2.7258L5.48724 1.4662C4.36427 2.8512 3.75799 4.66417 3.58713 6.81688L5.58087 6.97512ZM7.04888 2.71564C7.79959 1.76475 8.82486 1.272 10.248 1.272V-0.728001C8.27914 -0.728001 6.64841 -0.0047532 5.47912 1.47635L7.04888 2.71564ZM10.248 1.272C10.9107 1.272 11.5643 1.40378 12.2154 1.67508L12.9846 -0.171078C12.0997 -0.539786 11.1853 -0.728001 10.248 -0.728001V1.272ZM12.2154 1.67508C12.9524 1.98217 13.6569 2.3192 14.3291 2.68589L15.2869 0.930104C14.5511 0.5288 13.7836 0.16183 12.9846 -0.171078L12.2154 1.67508ZM14.3454 2.69459C15.0857 3.08083 15.7789 3.43549 16.4248 3.75842L17.3192 1.96957C16.6851 1.65251 16.0023 1.30316 15.2706 0.921414L14.3454 2.69459ZM16.4781 3.78314C17.2341 4.10716 17.9786 4.296 18.696 4.296V2.296C18.3254 2.296 17.8539 2.19683 17.2659 1.94485L16.4781 3.78314ZM18.696 4.296C19.6933 4.296 20.5704 3.93638 21.2495 3.21194L19.7905 1.84406C19.5096 2.14362 19.1707 2.296 18.696 2.296V4.296ZM21.2698 3.18962C21.913 2.46065 22.2755 1.52329 22.4226 0.456635L20.4414 0.183362C20.3325 0.972708 20.087 1.50735 19.7702 1.86638L21.2698 3.18962ZM21.432 1.32H24.696V-0.680001H21.432V1.32ZM23.6982 0.25348C23.5804 2.02036 23.0863 3.40288 22.2714 4.46229L23.8566 5.68171C24.9617 4.24512 25.5556 2.45964 25.6938 0.386518L23.6982 0.25348ZM22.2791 4.45235C21.5324 5.39826 20.4942 5.896 19.032 5.896V7.896C21.0258 7.896 22.6757 7.17774 23.8489 5.69164L22.2791 4.45235ZM19.032 5.896C18.3693 5.896 17.7157 5.76421 17.0646 5.49292L16.2954 7.33907C17.1803 7.70778 18.0947 7.896 19.032 7.896V5.896ZM17.0646 5.49292C16.3231 5.18394 15.5971 4.84411 14.8866 4.47341L13.9614 6.24659C14.7229 6.64389 15.5009 7.00806 16.2954 7.33907L17.0646 5.49292ZM14.9029 4.4821C14.1795 4.08757 13.4846 3.73989 12.8184 3.44008L11.9976 5.26392C12.6114 5.54011 13.2605 5.86442 13.9451 6.23789L14.9029 4.4821ZM12.8552 3.45757C12.1184 3.08917 11.3723 2.872 10.632 2.872V4.872C10.9797 4.872 11.4176 4.97483 11.9608 5.24643L12.8552 3.45757ZM10.632 2.872C9.61385 2.872 8.73112 3.26369 8.05816 4.02638L9.55784 5.34962C9.84488 5.02431 10.1782 4.872 10.632 4.872V2.872ZM8.05542 4.02949C7.44329 4.72908 7.08767 5.66319 6.90961 6.7316L8.88239 7.0604C9.02433 6.20881 9.27671 5.67092 9.56058 5.3465L8.05542 4.02949ZM7.896 5.896H4.584V7.896H7.896V5.896ZM18.2809 6.896L17.284 6.81688L17.1984 7.896H18.2809V6.896ZM19.9609 2.096L20.7377 2.72585L20.7458 2.71564L19.9609 2.096ZM26.2969 0.751999L25.9123 1.67508L25.9123 1.67508L26.2969 0.751999ZM28.5049 1.808L28.026 2.68589L28.0341 2.69032L28.0423 2.69459L28.5049 1.808ZM30.5689 2.864L30.1217 3.75842L30.1479 3.77157L30.175 3.78314L30.5689 2.864ZM34.2169 2.528L34.9464 3.21194L34.9567 3.20093L34.9667 3.18962L34.2169 2.528ZM35.1289 0.319999V-0.680001H34.2573L34.1383 0.183362L35.1289 0.319999ZM38.3929 0.319999L39.3907 0.386518L39.4618 -0.680001H38.3929V0.319999ZM36.7609 5.072L37.5458 5.69169L37.5535 5.68171L36.7609 5.072ZM30.3769 6.416L30.7615 5.49292L30.7615 5.49292L30.3769 6.416ZM28.1209 5.36L27.642 6.23789L27.6501 6.24232L27.6583 6.24659L28.1209 5.36ZM26.1049 4.352L25.6577 5.24643L25.6759 5.25555L25.6945 5.26392L26.1049 4.352ZM22.5049 4.688L21.755 4.02637L21.7523 4.02949L22.5049 4.688ZM21.5929 6.896V7.896H22.44L22.5793 7.0604L21.5929 6.896ZM19.2777 6.97512C19.4269 5.09583 19.9406 3.70879 20.7376 2.7258L19.1841 1.4662C18.0611 2.8512 17.4549 4.66417 17.284 6.81688L19.2777 6.97512ZM20.7458 2.71564C21.4965 1.76475 22.5217 1.272 23.9449 1.272V-0.728001C21.976 -0.728001 20.3453 -0.0047532 19.176 1.47635L20.7458 2.71564ZM23.9449 1.272C24.6076 1.272 25.2612 1.40378 25.9123 1.67508L26.6815 -0.171078C25.7966 -0.539786 24.8822 -0.728001 23.9449 -0.728001V1.272ZM25.9123 1.67508C26.6493 1.98217 27.3537 2.3192 28.026 2.68589L28.9837 0.930104C28.248 0.5288 27.4805 0.16183 26.6815 -0.171078L25.9123 1.67508ZM28.0423 2.69459C28.7826 3.08083 29.4758 3.43549 30.1217 3.75842L31.0161 1.96957C30.382 1.65251 29.6991 1.30316 28.9674 0.921414L28.0423 2.69459ZM30.175 3.78314C30.931 4.10716 31.6755 4.296 32.3929 4.296V2.296C32.0223 2.296 31.5507 2.19683 30.9628 1.94485L30.175 3.78314ZM32.3929 4.296C33.3901 4.296 34.2673 3.93638 34.9464 3.21194L33.4873 1.84406C33.2065 2.14362 32.8676 2.296 32.3929 2.296V4.296ZM34.9667 3.18962C35.6099 2.46065 35.9724 1.52329 36.1195 0.456635L34.1383 0.183362C34.0294 0.972708 33.7838 1.50735 33.467 1.86638L34.9667 3.18962ZM35.1289 1.32H38.3929V-0.680001H35.1289V1.32ZM37.3951 0.25348C37.2773 2.02036 36.7832 3.40288 35.9683 4.46229L37.5535 5.68171C38.6586 4.24512 39.2525 2.45964 39.3907 0.386518L37.3951 0.25348ZM35.976 4.45235C35.2292 5.39826 34.191 5.896 32.7289 5.896V7.896C34.7227 7.896 36.3725 7.17774 37.5458 5.69164L35.976 4.45235ZM32.7289 5.896C32.0662 5.896 31.4126 5.76421 30.7615 5.49292L29.9923 7.33907C30.8772 7.70778 31.7916 7.896 32.7289 7.896V5.896ZM30.7615 5.49292C30.0199 5.18394 29.2939 4.84411 28.5834 4.47341L27.6583 6.24659C28.4198 6.64389 29.1978 7.00806 29.9923 7.33907L30.7615 5.49292ZM28.5997 4.4821C27.8764 4.08757 27.1815 3.73989 26.5152 3.44008L25.6945 5.26392C26.3083 5.54011 26.9573 5.86442 27.642 6.23789L28.5997 4.4821ZM26.5521 3.45757C25.8153 3.08917 25.0691 2.872 24.3289 2.872V4.872C24.6766 4.872 25.1145 4.97483 25.6577 5.24643L26.5521 3.45757ZM24.3289 2.872C23.3107 2.872 22.428 3.26369 21.755 4.02638L23.2547 5.34962C23.5418 5.02431 23.875 4.872 24.3289 4.872V2.872ZM21.7523 4.02949C21.1402 4.72908 20.7845 5.66319 20.6065 6.7316L22.5793 7.0604C22.7212 6.20881 22.9736 5.67092 23.2575 5.3465L21.7523 4.02949ZM21.5929 5.896H18.2809V7.896H21.5929V5.896ZM31.9777 6.896L30.9809 6.81688L30.8952 7.896H31.9777V6.896ZM33.6577 2.096L34.4346 2.72585L34.4426 2.71564L33.6577 2.096ZM39.9937 0.751999L39.6091 1.67508L39.6091 1.67508L39.9937 0.751999ZM42.2017 1.808L41.7229 2.68589L41.731 2.69032L41.7392 2.69459L42.2017 1.808ZM44.2657 2.864L43.8185 3.75842L43.8448 3.77157L43.8718 3.78314L44.2657 2.864ZM47.9137 2.528L48.6433 3.21194L48.6536 3.20093L48.6636 3.18962L47.9137 2.528ZM48.8257 0.319999V-0.680001H47.9542L47.8351 0.183362L48.8257 0.319999ZM52.0898 0.319999L53.0875 0.386518L53.1586 -0.680001H52.0898V0.319999ZM50.4577 5.072L51.2427 5.69169L51.2504 5.68171L50.4577 5.072ZM44.0738 6.416L44.4584 5.49292L44.4584 5.49292L44.0738 6.416ZM41.8177 5.36L41.3389 6.23789L41.347 6.24232L41.3552 6.24659L41.8177 5.36ZM39.8017 4.352L39.3545 5.24643L39.3728 5.25555L39.3914 5.26392L39.8017 4.352ZM36.2017 4.688L35.4519 4.02637L35.4492 4.02949L36.2017 4.688ZM35.2897 6.896V7.896H36.1369L36.2761 7.0604L35.2897 6.896ZM32.9746 6.97512C33.1238 5.09583 33.6375 3.70879 34.4345 2.7258L32.881 1.4662C31.758 2.8512 31.1517 4.66417 30.9809 6.81688L32.9746 6.97512ZM34.4426 2.71564C35.1933 1.76475 36.2186 1.272 37.6417 1.272V-0.728001C35.6729 -0.728001 34.0422 -0.0047532 32.8729 1.47635L34.4426 2.71564ZM37.6417 1.272C38.3044 1.272 38.958 1.40378 39.6091 1.67508L40.3784 -0.171078C39.4935 -0.539786 38.5791 -0.728001 37.6417 -0.728001V1.272ZM39.6091 1.67508C40.3462 1.98217 41.0506 2.3192 41.7229 2.68589L42.6806 0.930104C41.9449 0.5288 41.1773 0.16183 40.3784 -0.171078L39.6091 1.67508ZM41.7392 2.69459C42.4795 3.08083 43.1727 3.43549 43.8185 3.75842L44.713 1.96957C44.0788 1.65251 43.396 1.30316 42.6643 0.921414L41.7392 2.69459ZM43.8718 3.78314C44.6279 4.10716 45.3724 4.296 46.0898 4.296V2.296C45.7191 2.296 45.2476 2.19683 44.6597 1.94485L43.8718 3.78314ZM46.0898 4.296C47.087 4.296 47.9641 3.93638 48.6433 3.21194L47.1842 1.84406C46.9034 2.14362 46.5645 2.296 46.0898 2.296V4.296ZM48.6636 3.18962C49.3068 2.46065 49.6692 1.52329 49.8164 0.456635L47.8351 0.183362C47.7263 0.972708 47.4807 1.50735 47.1639 1.86638L48.6636 3.18962ZM48.8257 1.32H52.0898V-0.680001H48.8257V1.32ZM51.092 0.25348C50.9742 2.02036 50.4801 3.40288 49.6651 4.46229L51.2504 5.68171C52.3554 4.24512 52.9493 2.45964 53.0875 0.386518L51.092 0.25348ZM49.6729 4.45235C48.9261 5.39826 47.8879 5.896 46.4258 5.896V7.896C48.4196 7.896 50.0694 7.17774 51.2426 5.69164L49.6729 4.45235ZM46.4258 5.896C45.7631 5.896 45.1095 5.76421 44.4584 5.49292L43.6891 7.33907C44.574 7.70778 45.4884 7.896 46.4258 7.896V5.896ZM44.4584 5.49292C43.7168 5.18394 42.9908 4.84411 42.2803 4.47341L41.3552 6.24659C42.1167 6.64389 42.8947 7.00806 43.6891 7.33907L44.4584 5.49292ZM42.2966 4.4821C41.5733 4.08757 40.8784 3.73989 40.2121 3.44008L39.3914 5.26392C40.0051 5.54011 40.6542 5.86442 41.3389 6.23789L42.2966 4.4821ZM40.249 3.45757C39.5122 3.08917 38.766 2.872 38.0257 2.872V4.872C38.3735 4.872 38.8113 4.97483 39.3545 5.24643L40.249 3.45757ZM38.0257 2.872C37.0076 2.872 36.1249 3.26369 35.4519 4.02638L36.9516 5.34962C37.2386 5.02431 37.5719 4.872 38.0257 4.872V2.872ZM35.4492 4.02949C34.837 4.72908 34.4814 5.66319 34.3034 6.7316L36.2761 7.0604C36.4181 6.20881 36.6705 5.67092 36.9543 5.3465L35.4492 4.02949ZM35.2897 5.896H31.9777V7.896H35.2897V5.896ZM45.6746 6.896L44.6778 6.81688L44.5921 7.896H45.6746V6.896ZM47.3546 2.096L48.1314 2.72585L48.1395 2.71564L47.3546 2.096ZM53.6906 0.751999L53.306 1.67508L53.306 1.67508L53.6906 0.751999ZM55.8986 1.808L55.4198 2.68589L55.4279 2.69032L55.4361 2.69459L55.8986 1.808ZM57.9626 2.864L57.5154 3.75842L57.5417 3.77157L57.5687 3.78314L57.9626 2.864ZM61.6106 2.528L62.3402 3.21194L62.3505 3.20093L62.3605 3.18962L61.6106 2.528ZM62.5226 0.319999V-0.680001H61.6511L61.532 0.183362L62.5226 0.319999ZM65.7866 0.319999L66.7844 0.386518L66.8555 -0.680001H65.7866V0.319999ZM64.1546 5.072L64.9396 5.69169L64.9472 5.68171L64.1546 5.072ZM57.7706 6.416L58.1552 5.49292L58.1552 5.49292L57.7706 6.416ZM55.5146 5.36L55.0358 6.23789L55.0439 6.24232L55.0521 6.24659L55.5146 5.36ZM53.4986 4.352L53.0514 5.24643L53.0697 5.25555L53.0883 5.26392L53.4986 4.352ZM49.8986 4.688L49.1488 4.02637L49.146 4.02949L49.8986 4.688ZM48.9866 6.896V7.896H49.8337L49.973 7.0604L48.9866 6.896ZM46.6715 6.97512C46.8206 5.09583 47.3344 3.70879 48.1314 2.7258L46.5779 1.4662C45.4549 2.8512 44.8486 4.66417 44.6778 6.81688L46.6715 6.97512ZM48.1395 2.71564C48.8902 1.76475 49.9155 1.272 51.3386 1.272V-0.728001C49.3698 -0.728001 47.739 -0.0047532 46.5697 1.47635L48.1395 2.71564ZM51.3386 1.272C52.0013 1.272 52.6549 1.40378 53.306 1.67508L54.0752 -0.171078C53.1903 -0.539786 52.2759 -0.728001 51.3386 -0.728001V1.272ZM53.306 1.67508C54.043 1.98217 54.7475 2.3192 55.4198 2.68589L56.3775 0.930104C55.6418 0.5288 54.8742 0.16183 54.0752 -0.171078L53.306 1.67508ZM55.4361 2.69459C56.1764 3.08083 56.8695 3.43549 57.5154 3.75842L58.4098 1.96957C57.7757 1.65251 57.0929 1.30316 56.3612 0.921414L55.4361 2.69459ZM57.5687 3.78314C58.3248 4.10716 59.0692 4.296 59.7866 4.296V2.296C59.416 2.296 58.9445 2.19683 58.3565 1.94485L57.5687 3.78314ZM59.7866 4.296C60.7839 4.296 61.661 3.93638 62.3402 3.21194L60.8811 1.84406C60.6002 2.14362 60.2614 2.296 59.7866 2.296V4.296ZM62.3605 3.18962C63.0037 2.46065 63.3661 1.52329 63.5132 0.456635L61.532 0.183362C61.4231 0.972708 61.1776 1.50735 60.8608 1.86638L62.3605 3.18962ZM62.5226 1.32H65.7866V-0.680001H62.5226V1.32ZM64.7888 0.25348C64.671 2.02036 64.1769 3.40288 63.362 4.46229L64.9472 5.68171C66.0523 4.24512 66.6462 2.45964 66.7844 0.386518L64.7888 0.25348ZM63.3697 4.45235C62.623 5.39826 61.5848 5.896 60.1226 5.896V7.896C62.1165 7.896 63.7663 7.17774 64.9395 5.69164L63.3697 4.45235ZM60.1226 5.896C59.4599 5.896 58.8063 5.76421 58.1552 5.49292L57.386 7.33907C58.2709 7.70778 59.1853 7.896 60.1226 7.896V5.896ZM58.1552 5.49292C57.4137 5.18394 56.6877 4.84411 55.9772 4.47341L55.0521 6.24659C55.8136 6.64389 56.5916 7.00806 57.386 7.33907L58.1552 5.49292ZM55.9935 4.4821C55.2702 4.08757 54.5752 3.73989 53.909 3.44008L53.0883 5.26392C53.702 5.54011 54.3511 5.86442 55.0358 6.23789L55.9935 4.4821ZM53.9458 3.45757C53.209 3.08917 52.4629 2.872 51.7226 2.872V4.872C52.0704 4.872 52.5082 4.97483 53.0514 5.24643L53.9458 3.45757ZM51.7226 2.872C50.7045 2.872 49.8217 3.26369 49.1488 4.02638L50.6485 5.34962C50.9355 5.02431 51.2688 4.872 51.7226 4.872V2.872ZM49.146 4.02949C48.5339 4.72908 48.1783 5.66319 48.0002 6.7316L49.973 7.0604C50.1149 6.20881 50.3673 5.67092 50.6512 5.3465L49.146 4.02949ZM48.9866 5.896H45.6746V7.896H48.9866V5.896ZM59.3715 6.896L58.3746 6.81688L58.289 7.896H59.3715V6.896ZM61.0515 2.096L61.8283 2.72585L61.8364 2.71564L61.0515 2.096ZM67.3875 0.751999L67.0029 1.67508L67.0029 1.67508L67.3875 0.751999ZM69.5955 1.808L69.1166 2.68589L69.1247 2.69032L69.1329 2.69459L69.5955 1.808ZM71.6595 2.864L71.2123 3.75842L71.2386 3.77157L71.2656 3.78314L71.6595 2.864ZM75.3075 2.528L76.037 3.21194L76.0474 3.20093L76.0573 3.18962L75.3075 2.528ZM76.2195 0.319999V-0.680001H75.348L75.2289 0.183362L76.2195 0.319999ZM79.4835 0.319999L80.4813 0.386518L80.5524 -0.680001H79.4835V0.319999ZM77.8515 5.072L78.6364 5.69169L78.6441 5.68171L77.8515 5.072ZM71.4675 6.416L71.8521 5.49292L71.8521 5.49292L71.4675 6.416ZM69.2115 5.36L68.7326 6.23789L68.7407 6.24232L68.7489 6.24659L69.2115 5.36ZM67.1955 4.352L66.7483 5.24643L66.7665 5.25555L66.7851 5.26392L67.1955 4.352ZM63.5955 4.688L62.8457 4.02637L62.8429 4.02949L63.5955 4.688ZM62.6835 6.896V7.896H63.5306L63.6699 7.0604L62.6835 6.896ZM60.3684 6.97512C60.5175 5.09583 61.0312 3.70879 61.8283 2.7258L60.2747 1.4662C59.1518 2.8512 58.5455 4.66417 58.3746 6.81688L60.3684 6.97512ZM61.8364 2.71564C62.5871 1.76475 63.6124 1.272 65.0355 1.272V-0.728001C63.0666 -0.728001 61.4359 -0.0047532 60.2666 1.47635L61.8364 2.71564ZM65.0355 1.272C65.6982 1.272 66.3518 1.40378 67.0029 1.67508L67.7721 -0.171078C66.8872 -0.539786 65.9728 -0.728001 65.0355 -0.728001V1.272ZM67.0029 1.67508C67.7399 1.98217 68.4444 2.3192 69.1166 2.68589L70.0744 0.930104C69.3386 0.5288 68.5711 0.16183 67.7721 -0.171078L67.0029 1.67508ZM69.1329 2.69459C69.8732 3.08083 70.5664 3.43549 71.2123 3.75842L72.1067 1.96957C71.4726 1.65251 70.7898 1.30316 70.0581 0.921414L69.1329 2.69459ZM71.2656 3.78314C72.0216 4.10716 72.7661 4.296 73.4835 4.296V2.296C73.1129 2.296 72.6414 2.19683 72.0534 1.94485L71.2656 3.78314ZM73.4835 4.296C74.4808 4.296 75.3579 3.93638 76.037 3.21194L74.578 1.84406C74.2971 2.14362 73.9582 2.296 73.4835 2.296V4.296ZM76.0573 3.18962C76.7005 2.46065 77.063 1.52329 77.2101 0.456635L75.2289 0.183362C75.12 0.972708 74.8745 1.50735 74.5577 1.86638L76.0573 3.18962ZM76.2195 1.32H79.4835V-0.680001H76.2195V1.32ZM78.4857 0.25348C78.3679 2.02036 77.8738 3.40288 77.0589 4.46229L78.6441 5.68171C79.7492 4.24512 80.3431 2.45964 80.4813 0.386518L78.4857 0.25348ZM77.0666 4.45235C76.3198 5.39826 75.2817 5.896 73.8195 5.896V7.896C75.8133 7.896 77.4631 7.17774 78.6364 5.69164L77.0666 4.45235ZM73.8195 5.896C73.1568 5.896 72.5032 5.76421 71.8521 5.49292L71.0829 7.33907C71.9678 7.70778 72.8822 7.896 73.8195 7.896V5.896ZM71.8521 5.49292C71.1105 5.18394 70.3846 4.84411 69.6741 4.47341L68.7489 6.24659C69.5104 6.64389 70.2884 7.00806 71.0829 7.33907L71.8521 5.49292ZM69.6904 4.4821C68.967 4.08757 68.2721 3.73989 67.6059 3.44008L66.7851 5.26392C67.3989 5.54011 68.0479 5.86442 68.7326 6.23789L69.6904 4.4821ZM67.6427 3.45757C66.9059 3.08917 66.1598 2.872 65.4195 2.872V4.872C65.7672 4.872 66.2051 4.97483 66.7483 5.24643L67.6427 3.45757ZM65.4195 2.872C64.4013 2.872 63.5186 3.26369 62.8457 4.02638L64.3453 5.34962C64.6324 5.02431 64.9657 4.872 65.4195 4.872V2.872ZM62.8429 4.02949C62.2308 4.72908 61.8752 5.66319 61.6971 6.7316L63.6699 7.0604C63.8118 6.20881 64.0642 5.67092 64.3481 5.3465L62.8429 4.02949ZM62.6835 5.896H59.3715V7.896H62.6835V5.896ZM73.0684 6.896L72.0715 6.81688L71.9859 7.896H73.0684V6.896ZM74.7484 2.096L75.5252 2.72585L75.5333 2.71564L74.7484 2.096ZM81.0844 0.751999L80.6998 1.67508L80.6998 1.67508L81.0844 0.751999ZM83.2924 1.808L82.8135 2.68589L82.8216 2.69032L82.8298 2.69459L83.2924 1.808ZM85.3564 2.864L84.9092 3.75842L84.9354 3.77157L84.9625 3.78314L85.3564 2.864ZM89.0044 2.528L89.7339 3.21194L89.7442 3.20093L89.7542 3.18962L89.0044 2.528ZM89.9164 0.319999V-0.680001H89.0448L88.9258 0.183362L89.9164 0.319999ZM93.1804 0.319999L94.1782 0.386518L94.2493 -0.680001H93.1804V0.319999ZM91.5484 5.072L92.3333 5.69169L92.341 5.68171L91.5484 5.072ZM85.1644 6.416L85.549 5.49292L85.549 5.49292L85.1644 6.416ZM82.9084 5.36L82.4295 6.23789L82.4376 6.24232L82.4458 6.24659L82.9084 5.36ZM80.8924 4.352L80.4452 5.24643L80.4634 5.25555L80.482 5.26392L80.8924 4.352ZM77.2924 4.688L76.5425 4.02637L76.5398 4.02949L77.2924 4.688ZM76.3804 6.896V7.896H77.2275L77.3668 7.0604L76.3804 6.896ZM74.0652 6.97512C74.2144 5.09583 74.7281 3.70879 75.5251 2.7258L73.9716 1.4662C72.8486 2.8512 72.2424 4.66417 72.0715 6.81688L74.0652 6.97512ZM75.5333 2.71564C76.284 1.76475 77.3092 1.272 78.7324 1.272V-0.728001C76.7635 -0.728001 75.1328 -0.0047532 73.9635 1.47635L75.5333 2.71564ZM78.7324 1.272C79.3951 1.272 80.0487 1.40378 80.6998 1.67508L81.469 -0.171078C80.5841 -0.539786 79.6697 -0.728001 78.7324 -0.728001V1.272ZM80.6998 1.67508C81.4368 1.98217 82.1412 2.3192 82.8135 2.68589L83.7712 0.930104C83.0355 0.5288 82.268 0.16183 81.469 -0.171078L80.6998 1.67508ZM82.8298 2.69459C83.5701 3.08083 84.2633 3.43549 84.9092 3.75842L85.8036 1.96957C85.1695 1.65251 84.4866 1.30316 83.7549 0.921414L82.8298 2.69459ZM84.9625 3.78314C85.7185 4.10716 86.463 4.296 87.1804 4.296V2.296C86.8098 2.296 86.3382 2.19683 85.7503 1.94485L84.9625 3.78314ZM87.1804 4.296C88.1776 4.296 89.0548 3.93638 89.7339 3.21194L88.2748 1.84406C87.994 2.14362 87.6551 2.296 87.1804 2.296V4.296ZM89.7542 3.18962C90.3974 2.46065 90.7599 1.52329 90.907 0.456635L88.9258 0.183362C88.8169 0.972708 88.5713 1.50735 88.2545 1.86638L89.7542 3.18962ZM89.9164 1.32H93.1804V-0.680001H89.9164V1.32ZM92.1826 0.25348C92.0648 2.02036 91.5707 3.40288 90.7558 4.46229L92.341 5.68171C93.4461 4.24512 94.04 2.45964 94.1782 0.386518L92.1826 0.25348ZM90.7635 4.45235C90.0167 5.39826 88.9785 5.896 87.5164 5.896V7.896C89.5102 7.896 91.16 7.17774 92.3333 5.69164L90.7635 4.45235ZM87.5164 5.896C86.8537 5.896 86.2001 5.76421 85.549 5.49292L84.7798 7.33907C85.6647 7.70778 86.5791 7.896 87.5164 7.896V5.896ZM85.549 5.49292C84.8074 5.18394 84.0814 4.84411 83.3709 4.47341L82.4458 6.24659C83.2073 6.64389 83.9853 7.00806 84.7798 7.33907L85.549 5.49292ZM83.3872 4.4821C82.6639 4.08757 81.969 3.73989 81.3027 3.44008L80.482 5.26392C81.0958 5.54011 81.7448 5.86442 82.4295 6.23789L83.3872 4.4821ZM81.3396 3.45757C80.6028 3.08917 79.8566 2.872 79.1164 2.872V4.872C79.4641 4.872 79.902 4.97483 80.4452 5.24643L81.3396 3.45757ZM79.1164 2.872C78.0982 2.872 77.2155 3.26369 76.5425 4.02638L78.0422 5.34962C78.3293 5.02431 78.6625 4.872 79.1164 4.872V2.872ZM76.5398 4.02949C75.9277 4.72908 75.572 5.66319 75.394 6.7316L77.3668 7.0604C77.5087 6.20881 77.7611 5.67092 78.045 5.3465L76.5398 4.02949ZM76.3804 5.896H73.0684V7.896H76.3804V5.896ZM86.7652 6.896L85.7684 6.81688L85.6827 7.896H86.7652V6.896ZM88.4452 2.096L89.2221 2.72585L89.2301 2.71564L88.4452 2.096ZM94.7812 0.751999L94.3966 1.67508L94.3966 1.67508L94.7812 0.751999ZM96.9892 1.808L96.5104 2.68589L96.5185 2.69032L96.5267 2.69459L96.9892 1.808ZM99.0532 2.864L98.606 3.75842L98.6323 3.77157L98.6593 3.78314L99.0532 2.864ZM102.701 2.528L103.431 3.21194L103.441 3.20093L103.451 3.18962L102.701 2.528ZM103.613 0.319999V-0.680001H102.742L102.623 0.183362L103.613 0.319999ZM106.877 0.319999L107.875 0.386518L107.946 -0.680001H106.877V0.319999ZM105.245 5.072L106.03 5.69169L106.038 5.68171L105.245 5.072ZM98.8612 6.416L99.2459 5.49292L99.2459 5.49292L98.8612 6.416ZM96.6052 5.36L96.1264 6.23789L96.1345 6.24232L96.1427 6.24659L96.6052 5.36ZM94.5892 4.352L94.142 5.24643L94.1603 5.25555L94.1789 5.26392L94.5892 4.352ZM90.9892 4.688L90.2394 4.02637L90.2367 4.02949L90.9892 4.688ZM90.0772 6.896V7.896H90.9244L91.0636 7.0604L90.0772 6.896ZM87.7621 6.97512C87.9113 5.09583 88.425 3.70879 89.222 2.7258L87.6685 1.4662C86.5455 2.8512 85.9392 4.66417 85.7684 6.81688L87.7621 6.97512ZM89.2301 2.71564C89.9808 1.76475 91.0061 1.272 92.4292 1.272V-0.728001C90.4604 -0.728001 88.8297 -0.0047532 87.6604 1.47635L89.2301 2.71564ZM92.4292 1.272C93.0919 1.272 93.7455 1.40378 94.3966 1.67508L95.1659 -0.171078C94.281 -0.539786 93.3666 -0.728001 92.4292 -0.728001V1.272ZM94.3966 1.67508C95.1336 1.98217 95.8381 2.3192 96.5104 2.68589L97.4681 0.930104C96.7324 0.5288 95.9648 0.16183 95.1659 -0.171078L94.3966 1.67508ZM96.5267 2.69459C97.267 3.08083 97.9602 3.43549 98.606 3.75842L99.5005 1.96957C98.8663 1.65251 98.1835 1.30316 97.4518 0.921414L96.5267 2.69459ZM98.6593 3.78314C99.4154 4.10716 100.16 4.296 100.877 4.296V2.296C100.507 2.296 100.035 2.19683 99.4472 1.94485L98.6593 3.78314ZM100.877 4.296C101.875 4.296 102.752 3.93638 103.431 3.21194L101.972 1.84406C101.691 2.14362 101.352 2.296 100.877 2.296V4.296ZM103.451 3.18962C104.094 2.46065 104.457 1.52329 104.604 0.456635L102.623 0.183362C102.514 0.972708 102.268 1.50735 101.951 1.86638L103.451 3.18962ZM103.613 1.32H106.877V-0.680001H103.613V1.32ZM105.879 0.25348C105.762 2.02036 105.268 3.40288 104.453 4.46229L106.038 5.68171C107.143 4.24512 107.737 2.45964 107.875 0.386518L105.879 0.25348ZM104.46 4.45235C103.714 5.39826 102.675 5.896 101.213 5.896V7.896C103.207 7.896 104.857 7.17774 106.03 5.69164L104.46 4.45235ZM101.213 5.896C100.551 5.896 99.897 5.76421 99.2459 5.49292L98.4766 7.33907C99.3615 7.70778 100.276 7.896 101.213 7.896V5.896ZM99.2459 5.49292C98.5043 5.18394 97.7783 4.84411 97.0678 4.47341L96.1427 6.24659C96.9042 6.64389 97.6822 7.00806 98.4766 7.33907L99.2459 5.49292ZM97.0841 4.4821C96.3608 4.08757 95.6659 3.73989 94.9996 3.44008L94.1789 5.26392C94.7926 5.54011 95.4417 5.86442 96.1264 6.23789L97.0841 4.4821ZM95.0365 3.45757C94.2997 3.08917 93.5535 2.872 92.8132 2.872V4.872C93.161 4.872 93.5988 4.97483 94.142 5.24643L95.0365 3.45757ZM92.8132 2.872C91.7951 2.872 90.9124 3.26369 90.2394 4.02638L91.7391 5.34962C92.0261 5.02431 92.3594 4.872 92.8132 4.872V2.872ZM90.2367 4.02949C89.6245 4.72908 89.2689 5.66319 89.0909 6.7316L91.0636 7.0604C91.2056 6.20881 91.458 5.67092 91.7418 5.3465L90.2367 4.02949ZM90.0772 5.896H86.7652V7.896H90.0772V5.896ZM100.462 6.896L99.4653 6.81688L99.3796 7.896H100.462V6.896ZM102.142 2.096L102.919 2.72585L102.927 2.71564L102.142 2.096ZM108.478 0.751999L108.094 1.67508L108.094 1.67508L108.478 0.751999ZM110.686 1.808L110.207 2.68589L110.215 2.69032L110.224 2.69459L110.686 1.808ZM112.75 2.864L112.303 3.75842L112.329 3.77157L112.356 3.78314L112.75 2.864ZM116.398 2.528L117.128 3.21194L117.138 3.20093L117.148 3.18962L116.398 2.528ZM117.31 0.319999V-0.680001H116.439L116.319 0.183362L117.31 0.319999ZM120.574 0.319999L121.572 0.386518L121.643 -0.680001H120.574V0.319999ZM118.942 5.072L119.727 5.69169L119.735 5.68171L118.942 5.072ZM112.558 6.416L112.943 5.49292L112.943 5.49292L112.558 6.416ZM110.302 5.36L109.823 6.23789L109.831 6.24232L109.84 6.24659L110.302 5.36ZM108.286 4.352L107.839 5.24643L107.857 5.25555L107.876 5.26392L108.286 4.352ZM104.686 4.688L103.936 4.02637L103.934 4.02949L104.686 4.688ZM103.774 6.896V7.896H104.621L104.761 7.0604L103.774 6.896ZM101.459 6.97512C101.608 5.09583 102.122 3.70879 102.919 2.7258L101.365 1.4662C100.242 2.8512 99.6361 4.66417 99.4653 6.81688L101.459 6.97512ZM102.927 2.71564C103.678 1.76475 104.703 1.272 106.126 1.272V-0.728001C104.157 -0.728001 102.527 -0.0047532 101.357 1.47635L102.927 2.71564ZM106.126 1.272C106.789 1.272 107.442 1.40378 108.094 1.67508L108.863 -0.171078C107.978 -0.539786 107.063 -0.728001 106.126 -0.728001V1.272ZM108.094 1.67508C108.831 1.98217 109.535 2.3192 110.207 2.68589L111.165 0.930104C110.429 0.5288 109.662 0.16183 108.863 -0.171078L108.094 1.67508ZM110.224 2.69459C110.964 3.08083 111.657 3.43549 112.303 3.75842L113.197 1.96957C112.563 1.65251 111.88 1.30316 111.149 0.921414L110.224 2.69459ZM112.356 3.78314C113.112 4.10716 113.857 4.296 114.574 4.296V2.296C114.204 2.296 113.732 2.19683 113.144 1.94485L112.356 3.78314ZM114.574 4.296C115.571 4.296 116.448 3.93638 117.128 3.21194L115.669 1.84406C115.388 2.14362 115.049 2.296 114.574 2.296V4.296ZM117.148 3.18962C117.791 2.46065 118.154 1.52329 118.301 0.456635L116.319 0.183362C116.211 0.972708 115.965 1.50735 115.648 1.86638L117.148 3.18962ZM117.31 1.32H120.574V-0.680001H117.31V1.32ZM119.576 0.25348C119.459 2.02036 118.964 3.40288 118.149 4.46229L119.735 5.68171C120.84 4.24512 121.434 2.45964 121.572 0.386518L119.576 0.25348ZM118.157 4.45235C117.41 5.39826 116.372 5.896 114.91 5.896V7.896C116.904 7.896 118.554 7.17774 119.727 5.69164L118.157 4.45235ZM114.91 5.896C114.247 5.896 113.594 5.76421 112.943 5.49292L112.174 7.33907C113.058 7.70778 113.973 7.896 114.91 7.896V5.896ZM112.943 5.49292C112.201 5.18394 111.475 4.84411 110.765 4.47341L109.84 6.24659C110.601 6.64389 111.379 7.00806 112.174 7.33907L112.943 5.49292ZM110.781 4.4821C110.058 4.08757 109.363 3.73989 108.696 3.44008L107.876 5.26392C108.49 5.54011 109.139 5.86442 109.823 6.23789L110.781 4.4821ZM108.733 3.45757C107.997 3.08917 107.25 2.872 106.51 2.872V4.872C106.858 4.872 107.296 4.97483 107.839 5.24643L108.733 3.45757ZM106.51 2.872C105.492 2.872 104.609 3.26369 103.936 4.02638L105.436 5.34962C105.723 5.02431 106.056 4.872 106.51 4.872V2.872ZM103.934 4.02949C103.321 4.72908 102.966 5.66319 102.788 6.7316L104.761 7.0604C104.902 6.20881 105.155 5.67092 105.439 5.3465L103.934 4.02949ZM103.774 5.896H100.462V7.896H103.774V5.896ZM114.159 6.896L113.162 6.81688L113.076 7.896H114.159V6.896ZM115.839 2.096L116.616 2.72585L116.624 2.71564L115.839 2.096ZM122.175 0.751999L121.79 1.67508L121.79 1.67508L122.175 0.751999ZM124.383 1.808L123.904 2.68589L123.912 2.69032L123.92 2.69459L124.383 1.808ZM126.447 2.864L126 3.75842L126.026 3.77157L126.053 3.78314L126.447 2.864ZM130.095 2.528L130.825 3.21194L130.835 3.20093L130.845 3.18962L130.095 2.528ZM131.007 0.319999V-0.680001H130.135L130.016 0.183362L131.007 0.319999ZM134.271 0.319999L135.269 0.386518L135.34 -0.680001H134.271V0.319999ZM132.639 5.072L133.424 5.69169L133.432 5.68171L132.639 5.072ZM126.255 6.416L126.64 5.49292L126.64 5.49292L126.255 6.416ZM123.999 5.36L123.52 6.23789L123.528 6.24232L123.536 6.24659L123.999 5.36ZM121.983 4.352L121.536 5.24643L121.554 5.25555L121.573 5.26392L121.983 4.352ZM118.383 4.688L117.633 4.02637L117.63 4.02949L118.383 4.688ZM117.471 6.896V7.896H118.318L118.457 7.0604L117.471 6.896ZM115.156 6.97512C115.305 5.09583 115.819 3.70879 116.616 2.7258L115.062 1.4662C113.939 2.8512 113.333 4.66417 113.162 6.81688L115.156 6.97512ZM116.624 2.71564C117.375 1.76475 118.4 1.272 119.823 1.272V-0.728001C117.854 -0.728001 116.223 -0.0047532 115.054 1.47635L116.624 2.71564ZM119.823 1.272C120.486 1.272 121.139 1.40378 121.79 1.67508L122.56 -0.171078C121.675 -0.539786 120.76 -0.728001 119.823 -0.728001V1.272ZM121.79 1.67508C122.527 1.98217 123.232 2.3192 123.904 2.68589L124.862 0.930104C124.126 0.5288 123.359 0.16183 122.56 -0.171078L121.79 1.67508ZM123.92 2.69459C124.661 3.08083 125.354 3.43549 126 3.75842L126.894 1.96957C126.26 1.65251 125.577 1.30316 124.846 0.921414L123.92 2.69459ZM126.053 3.78314C126.809 4.10716 127.554 4.296 128.271 4.296V2.296C127.9 2.296 127.429 2.19683 126.841 1.94485L126.053 3.78314ZM128.271 4.296C129.268 4.296 130.145 3.93638 130.825 3.21194L129.365 1.84406C129.085 2.14362 128.746 2.296 128.271 2.296V4.296ZM130.845 3.18962C131.488 2.46065 131.85 1.52329 131.998 0.456635L130.016 0.183362C129.908 0.972708 129.662 1.50735 129.345 1.86638L130.845 3.18962ZM131.007 1.32H134.271V-0.680001H131.007V1.32ZM133.273 0.25348C133.155 2.02036 132.661 3.40288 131.846 4.46229L133.432 5.68171C134.537 4.24512 135.131 2.45964 135.269 0.386518L133.273 0.25348ZM131.854 4.45235C131.107 5.39826 130.069 5.896 128.607 5.896V7.896C130.601 7.896 132.251 7.17774 133.424 5.69164L131.854 4.45235ZM128.607 5.896C127.944 5.896 127.291 5.76421 126.64 5.49292L125.87 7.33907C126.755 7.70778 127.67 7.896 128.607 7.896V5.896ZM126.64 5.49292C125.898 5.18394 125.172 4.84411 124.462 4.47341L123.536 6.24659C124.298 6.64389 125.076 7.00806 125.87 7.33907L126.64 5.49292ZM124.478 4.4821C123.755 4.08757 123.06 3.73989 122.393 3.44008L121.573 5.26392C122.186 5.54011 122.835 5.86442 123.52 6.23789L124.478 4.4821ZM122.43 3.45757C121.693 3.08917 120.947 2.872 120.207 2.872V4.872C120.555 4.872 120.993 4.97483 121.536 5.24643L122.43 3.45757ZM120.207 2.872C119.189 2.872 118.306 3.26369 117.633 4.02638L119.133 5.34962C119.42 5.02431 119.753 4.872 120.207 4.872V2.872ZM117.63 4.02949C117.018 4.72908 116.663 5.66319 116.485 6.7316L118.457 7.0604C118.599 6.20881 118.852 5.67092 119.136 5.3465L117.63 4.02949ZM117.471 5.896H114.159V7.896H117.471V5.896ZM127.856 6.896L126.859 6.81688L126.773 7.896H127.856V6.896ZM129.536 2.096L130.313 2.72585L130.321 2.71564L129.536 2.096ZM135.872 0.751999L135.487 1.67508L135.487 1.67508L135.872 0.751999ZM138.08 1.808L137.601 2.68589L137.609 2.69032L137.617 2.69459L138.08 1.808ZM140.144 2.864L139.697 3.75842L139.723 3.77157L139.75 3.78314L140.144 2.864ZM143.792 2.528L144.521 3.21194L144.532 3.20093L144.542 3.18962L143.792 2.528ZM144.704 0.319999V-0.680001H143.832L143.713 0.183362L144.704 0.319999ZM147.968 0.319999L148.966 0.386518L149.037 -0.680001H147.968V0.319999ZM146.336 5.072L147.121 5.69169L147.128 5.68171L146.336 5.072ZM139.952 6.416L140.336 5.49292L140.336 5.49292L139.952 6.416ZM137.696 5.36L137.217 6.23789L137.225 6.24232L137.233 6.24659L137.696 5.36ZM135.68 4.352L135.233 5.24643L135.251 5.25555L135.27 5.26392L135.68 4.352ZM132.08 4.688L131.33 4.02637L131.327 4.02949L132.08 4.688ZM131.168 6.896V7.896H132.015L132.154 7.0604L131.168 6.896ZM128.853 6.97512C129.002 5.09583 129.516 3.70879 130.313 2.7258L128.759 1.4662C127.636 2.8512 127.03 4.66417 126.859 6.81688L128.853 6.97512ZM130.321 2.71564C131.071 1.76475 132.097 1.272 133.52 1.272V-0.728001C131.551 -0.728001 129.92 -0.0047532 128.751 1.47635L130.321 2.71564ZM133.52 1.272C134.183 1.272 134.836 1.40378 135.487 1.67508L136.256 -0.171078C135.372 -0.539786 134.457 -0.728001 133.52 -0.728001V1.272ZM135.487 1.67508C136.224 1.98217 136.929 2.3192 137.601 2.68589L138.559 0.930104C137.823 0.5288 137.055 0.16183 136.256 -0.171078L135.487 1.67508ZM137.617 2.69459C138.358 3.08083 139.051 3.43549 139.697 3.75842L140.591 1.96957C139.957 1.65251 139.274 1.30316 138.542 0.921414L137.617 2.69459ZM139.75 3.78314C140.506 4.10716 141.25 4.296 141.968 4.296V2.296C141.597 2.296 141.126 2.19683 140.538 1.94485L139.75 3.78314ZM141.968 4.296C142.965 4.296 143.842 3.93638 144.521 3.21194L143.062 1.84406C142.781 2.14362 142.443 2.296 141.968 2.296V4.296ZM144.542 3.18962C145.185 2.46065 145.547 1.52329 145.694 0.456635L143.713 0.183362C143.604 0.972708 143.359 1.50735 143.042 1.86638L144.542 3.18962ZM144.704 1.32H147.968V-0.680001H144.704V1.32ZM146.97 0.25348C146.852 2.02036 146.358 3.40288 145.543 4.46229L147.128 5.68171C148.234 4.24512 148.827 2.45964 148.966 0.386518L146.97 0.25348ZM145.551 4.45235C144.804 5.39826 143.766 5.896 142.304 5.896V7.896C144.298 7.896 145.948 7.17774 147.121 5.69164L145.551 4.45235ZM142.304 5.896C141.641 5.896 140.988 5.76421 140.336 5.49292L139.567 7.33907C140.452 7.70778 141.367 7.896 142.304 7.896V5.896ZM140.336 5.49292C139.595 5.18394 138.869 4.84411 138.158 4.47341L137.233 6.24659C137.995 6.64389 138.773 7.00806 139.567 7.33907L140.336 5.49292ZM138.175 4.4821C137.451 4.08757 136.756 3.73989 136.09 3.44008L135.27 5.26392C135.883 5.54011 136.532 5.86442 137.217 6.23789L138.175 4.4821ZM136.127 3.45757C135.39 3.08917 134.644 2.872 133.904 2.872V4.872C134.252 4.872 134.689 4.97483 135.233 5.24643L136.127 3.45757ZM133.904 2.872C132.886 2.872 132.003 3.26369 131.33 4.02638L132.83 5.34962C133.117 5.02431 133.45 4.872 133.904 4.872V2.872ZM131.327 4.02949C130.715 4.72908 130.36 5.66319 130.181 6.7316L132.154 7.0604C132.296 6.20881 132.549 5.67092 132.832 5.3465L131.327 4.02949ZM131.168 5.896H127.856V7.896H131.168V5.896Z" fill="black" mask="url(#path-1-outside-1_4_660)"/>
</g>
<defs>
<filter id="filter0_d_4_660" x="0.583984" y="0.271973" width="151.384" height="14.624" filterUnits="userSpaceOnUse" color-interpolation-filters="sRGB">
<feFlood flood-opacity="0" result="BackgroundImageFix"/>
<feColorMatrix in="SourceAlpha" type="matrix" values="0 0 0 0 0 0 0 0 0 0 0 0 0 0 0 0 0 0 127 0" result="hardAlpha"/>
<feOffset dy="4"/>
<feGaussianBlur stdDeviation="2"/>
<feComposite in2="hardAlpha" operator="out"/>
<feColorMatrix type="matrix" values="0 0 0 0 0 0 0 0 0 0 0 0 0 0 0 0 0 0 0.25 0"/>
<feBlend mode="normal" in2="BackgroundImageFix" result="effect1_dropShadow_4_660"/>
<feBlend mode="normal" in="SourceGraphic" in2="effect1_dropShadow_4_660" result="shape"/>
</filter>
<linearGradient id="paint0_linear_4_660" x1="-2.76471" y1="-14.8837" x2="161.997" y2="-6.66196" gradientUnits="userSpaceOnUse">
<stop stop-color="#C6F1F7"/>
<stop offset="0.364583" stop-color="#F983E9"/>
<stop offset="0.739583" stop-color="#B877FF"/>
<stop offset="1" stop-color="#C2E9CD"/>
</linearGradient>
</defs>
</svg>
