<svg width="240" height="7" viewBox="0 0 240 7" fill="none" xmlns="http://www.w3.org/2000/svg">
<path d="M0.584 6.896C0.744 4.88 1.304 3.28 2.264 2.096C3.224 0.879999 4.552 0.271999 6.248 0.271999C7.048 0.271999 7.832 0.431999 8.6 0.751999C9.368 1.072 10.104 1.424 10.808 1.808C11.544 2.192 12.232 2.544 12.872 2.864C13.544 3.152 14.152 3.296 14.696 3.296C15.432 3.296 16.04 3.04 16.52 2.528C17 1.984 17.304 1.248 17.432 0.319999H20.696C20.568 2.24 20.024 3.824 19.064 5.072C18.104 6.288 16.76 6.896 15.032 6.896C14.232 6.896 13.448 6.736 12.68 6.416C11.912 6.096 11.16 5.744 10.424 5.36C9.72 4.976 9.048 4.64 8.408 4.352C7.768 4.032 7.176 3.872 6.632 3.872C5.896 3.872 5.288 4.144 4.808 4.688C4.36 5.2 4.056 5.936 3.896 6.896H0.584ZM14.2809 6.896C14.4409 4.88 15.0009 3.28 15.9609 2.096C16.9209 0.879999 18.2489 0.271999 19.9449 0.271999C20.7449 0.271999 21.5289 0.431999 22.2969 0.751999C23.0649 1.072 23.8009 1.424 24.5049 1.808C25.2409 2.192 25.9289 2.544 26.5689 2.864C27.2409 3.152 27.8489 3.296 28.3929 3.296C29.1289 3.296 29.7369 3.04 30.2169 2.528C30.6969 1.984 31.0009 1.248 31.1289 0.319999H34.3929C34.2649 2.24 33.7209 3.824 32.7609 5.072C31.8009 6.288 30.4569 6.896 28.7289 6.896C27.9289 6.896 27.1449 6.736 26.3769 6.416C25.6089 6.096 24.8569 5.744 24.1209 5.36C23.4169 4.976 22.7449 4.64 22.1049 4.352C21.4649 4.032 20.8729 3.872 20.3289 3.872C19.5929 3.872 18.9849 4.144 18.5049 4.688C18.0569 5.2 17.7529 5.936 17.5929 6.896H14.2809ZM27.9777 6.896C28.1377 4.88 28.6977 3.28 29.6577 2.096C30.6177 0.879999 31.9457 0.271999 33.6417 0.271999C34.4417 0.271999 35.2257 0.431999 35.9937 0.751999C36.7617 1.072 37.4977 1.424 38.2017 1.808C38.9378 2.192 39.6258 2.544 40.2657 2.864C40.9377 3.152 41.5457 3.296 42.0898 3.296C42.8258 3.296 43.4338 3.04 43.9137 2.528C44.3938 1.984 44.6978 1.248 44.8257 0.319999H48.0898C47.9618 2.24 47.4177 3.824 46.4577 5.072C45.4977 6.288 44.1537 6.896 42.4258 6.896C41.6258 6.896 40.8418 6.736 40.0738 6.416C39.3057 6.096 38.5537 5.744 37.8177 5.36C37.1137 4.976 36.4417 4.64 35.8017 4.352C35.1617 4.032 34.5697 3.872 34.0257 3.872C33.2897 3.872 32.6817 4.144 32.2017 4.688C31.7537 5.2 31.4497 5.936 31.2897 6.896H27.9777ZM41.6746 6.896C41.8346 4.88 42.3946 3.28 43.3546 2.096C44.3146 0.879999 45.6426 0.271999 47.3386 0.271999C48.1386 0.271999 48.9226 0.431999 49.6906 0.751999C50.4586 1.072 51.1946 1.424 51.8986 1.808C52.6346 2.192 53.3226 2.544 53.9626 2.864C54.6346 3.152 55.2426 3.296 55.7866 3.296C56.5226 3.296 57.1306 3.04 57.6106 2.528C58.0906 1.984 58.3946 1.248 58.5226 0.319999H61.7866C61.6586 2.24 61.1146 3.824 60.1546 5.072C59.1946 6.288 57.8506 6.896 56.1226 6.896C55.3226 6.896 54.5386 6.736 53.7706 6.416C53.0026 6.096 52.2506 5.744 51.5146 5.36C50.8106 4.976 50.1386 4.64 49.4986 4.352C48.8586 4.032 48.2666 3.872 47.7226 3.872C46.9866 3.872 46.3786 4.144 45.8986 4.688C45.4506 5.2 45.1466 5.936 44.9866 6.896H41.6746ZM55.3715 6.896C55.5315 4.88 56.0915 3.28 57.0515 2.096C58.0115 0.879999 59.3395 0.271999 61.0355 0.271999C61.8355 0.271999 62.6195 0.431999 63.3875 0.751999C64.1555 1.072 64.8915 1.424 65.5955 1.808C66.3315 2.192 67.0195 2.544 67.6595 2.864C68.3315 3.152 68.9395 3.296 69.4835 3.296C70.2195 3.296 70.8275 3.04 71.3075 2.528C71.7875 1.984 72.0915 1.248 72.2195 0.319999H75.4835C75.3555 2.24 74.8115 3.824 73.8515 5.072C72.8915 6.288 71.5475 6.896 69.8195 6.896C69.0195 6.896 68.2355 6.736 67.4675 6.416C66.6995 6.096 65.9475 5.744 65.2115 5.36C64.5075 4.976 63.8355 4.64 63.1955 4.352C62.5555 4.032 61.9635 3.872 61.4195 3.872C60.6835 3.872 60.0755 4.144 59.5955 4.688C59.1475 5.2 58.8435 5.936 58.6835 6.896H55.3715ZM69.0684 6.896C69.2284 4.88 69.7884 3.28 70.7484 2.096C71.7084 0.879999 73.0364 0.271999 74.7324 0.271999C75.5324 0.271999 76.3164 0.431999 77.0844 0.751999C77.8524 1.072 78.5884 1.424 79.2924 1.808C80.0284 2.192 80.7164 2.544 81.3564 2.864C82.0284 3.152 82.6364 3.296 83.1804 3.296C83.9164 3.296 84.5244 3.04 85.0044 2.528C85.4844 1.984 85.7884 1.248 85.9164 0.319999H89.1804C89.0524 2.24 88.5084 3.824 87.5484 5.072C86.5884 6.288 85.2444 6.896 83.5164 6.896C82.7164 6.896 81.9324 6.736 81.1644 6.416C80.3964 6.096 79.6444 5.744 78.9084 5.36C78.2044 4.976 77.5324 4.64 76.8924 4.352C76.2524 4.032 75.6604 3.872 75.1164 3.872C74.3804 3.872 73.7724 4.144 73.2924 4.688C72.8444 5.2 72.5404 5.936 72.3804 6.896H69.0684ZM82.7652 6.896C82.9252 4.88 83.4852 3.28 84.4452 2.096C85.4052 0.879999 86.7332 0.271999 88.4292 0.271999C89.2292 0.271999 90.0132 0.431999 90.7812 0.751999C91.5492 1.072 92.2852 1.424 92.9892 1.808C93.7252 2.192 94.4132 2.544 95.0532 2.864C95.7252 3.152 96.3332 3.296 96.8772 3.296C97.6132 3.296 98.2212 3.04 98.7012 2.528C99.1812 1.984 99.4852 1.248 99.6132 0.319999H102.877C102.749 2.24 102.205 3.824 101.245 5.072C100.285 6.288 98.9412 6.896 97.2132 6.896C96.4132 6.896 95.6292 6.736 94.8612 6.416C94.0932 6.096 93.3412 5.744 92.6052 5.36C91.9012 4.976 91.2292 4.64 90.5892 4.352C89.9492 4.032 89.3572 3.872 88.8132 3.872C88.0772 3.872 87.4692 4.144 86.9892 4.688C86.5412 5.2 86.2372 5.936 86.0772 6.896H82.7652ZM96.4621 6.896C96.6221 4.88 97.1821 3.28 98.1421 2.096C99.1021 0.879999 100.43 0.271999 102.126 0.271999C102.926 0.271999 103.71 0.431999 104.478 0.751999C105.246 1.072 105.982 1.424 106.686 1.808C107.422 2.192 108.11 2.544 108.75 2.864C109.422 3.152 110.03 3.296 110.574 3.296C111.31 3.296 111.918 3.04 112.398 2.528C112.878 1.984 113.182 1.248 113.31 0.319999H116.574C116.446 2.24 115.902 3.824 114.942 5.072C113.982 6.288 112.638 6.896 110.91 6.896C110.11 6.896 109.326 6.736 108.558 6.416C107.79 6.096 107.038 5.744 106.302 5.36C105.598 4.976 104.926 4.64 104.286 4.352C103.646 4.032 103.054 3.872 102.51 3.872C101.774 3.872 101.166 4.144 100.686 4.688C100.238 5.2 99.9341 5.936 99.7741 6.896H96.4621ZM110.159 6.896C110.319 4.88 110.879 3.28 111.839 2.096C112.799 0.879999 114.127 0.271999 115.823 0.271999C116.623 0.271999 117.407 0.431999 118.175 0.751999C118.943 1.072 119.679 1.424 120.383 1.808C121.119 2.192 121.807 2.544 122.447 2.864C123.119 3.152 123.727 3.296 124.271 3.296C125.007 3.296 125.615 3.04 126.095 2.528C126.575 1.984 126.879 1.248 127.007 0.319999H130.271C130.143 2.24 129.599 3.824 128.639 5.072C127.679 6.288 126.335 6.896 124.607 6.896C123.807 6.896 123.023 6.736 122.255 6.416C121.487 6.096 120.735 5.744 119.999 5.36C119.295 4.976 118.623 4.64 117.983 4.352C117.343 4.032 116.751 3.872 116.207 3.872C115.471 3.872 114.863 4.144 114.383 4.688C113.935 5.2 113.631 5.936 113.471 6.896H110.159ZM123.856 6.896C124.016 4.88 124.576 3.28 125.536 2.096C126.496 0.879999 127.824 0.271999 129.52 0.271999C130.32 0.271999 131.104 0.431999 131.872 0.751999C132.64 1.072 133.376 1.424 134.08 1.808C134.816 2.192 135.504 2.544 136.144 2.864C136.816 3.152 137.424 3.296 137.968 3.296C138.704 3.296 139.312 3.04 139.792 2.528C140.272 1.984 140.576 1.248 140.704 0.319999H143.968C143.84 2.24 143.296 3.824 142.336 5.072C141.376 6.288 140.032 6.896 138.304 6.896C137.504 6.896 136.72 6.736 135.952 6.416C135.184 6.096 134.432 5.744 133.696 5.36C132.992 4.976 132.32 4.64 131.68 4.352C131.04 4.032 130.448 3.872 129.904 3.872C129.168 3.872 128.56 4.144 128.08 4.688C127.632 5.2 127.328 5.936 127.168 6.896H123.856ZM137.553 6.896C137.713 4.88 138.273 3.28 139.233 2.096C140.193 0.879999 141.521 0.271999 143.217 0.271999C144.017 0.271999 144.801 0.431999 145.569 0.751999C146.337 1.072 147.073 1.424 147.777 1.808C148.513 2.192 149.201 2.544 149.841 2.864C150.513 3.152 151.121 3.296 151.665 3.296C152.401 3.296 153.009 3.04 153.489 2.528C153.969 1.984 154.273 1.248 154.401 0.319999H157.665C157.537 2.24 156.993 3.824 156.033 5.072C155.073 6.288 153.729 6.896 152.001 6.896C151.201 6.896 150.417 6.736 149.649 6.416C148.881 6.096 148.129 5.744 147.393 5.36C146.689 4.976 146.017 4.64 145.377 4.352C144.737 4.032 144.145 3.872 143.601 3.872C142.865 3.872 142.257 4.144 141.777 4.688C141.329 5.2 141.025 5.936 140.865 6.896H137.553ZM151.25 6.896C151.41 4.88 151.97 3.28 152.93 2.096C153.89 0.879999 155.218 0.271999 156.914 0.271999C157.714 0.271999 158.498 0.431999 159.266 0.751999C160.034 1.072 160.77 1.424 161.474 1.808C162.21 2.192 162.898 2.544 163.538 2.864C164.21 3.152 164.818 3.296 165.362 3.296C166.098 3.296 166.706 3.04 167.186 2.528C167.666 1.984 167.97 1.248 168.098 0.319999H171.362C171.234 2.24 170.69 3.824 169.73 5.072C168.77 6.288 167.426 6.896 165.698 6.896C164.898 6.896 164.114 6.736 163.346 6.416C162.578 6.096 161.826 5.744 161.09 5.36C160.386 4.976 159.714 4.64 159.074 4.352C158.434 4.032 157.842 3.872 157.298 3.872C156.562 3.872 155.954 4.144 155.474 4.688C155.026 5.2 154.722 5.936 154.562 6.896H151.25ZM164.946 6.896C165.106 4.88 165.666 3.28 166.626 2.096C167.586 0.879999 168.914 0.271999 170.61 0.271999C171.41 0.271999 172.194 0.431999 172.962 0.751999C173.73 1.072 174.466 1.424 175.17 1.808C175.906 2.192 176.594 2.544 177.234 2.864C177.906 3.152 178.514 3.296 179.058 3.296C179.794 3.296 180.402 3.04 180.882 2.528C181.362 1.984 181.666 1.248 181.794 0.319999H185.058C184.93 2.24 184.386 3.824 183.426 5.072C182.466 6.288 181.122 6.896 179.394 6.896C178.594 6.896 177.81 6.736 177.042 6.416C176.274 6.096 175.522 5.744 174.786 5.36C174.082 4.976 173.41 4.64 172.77 4.352C172.13 4.032 171.538 3.872 170.994 3.872C170.258 3.872 169.65 4.144 169.17 4.688C168.722 5.2 168.418 5.936 168.258 6.896H164.946ZM178.643 6.896C178.803 4.88 179.363 3.28 180.323 2.096C181.283 0.879999 182.611 0.271999 184.307 0.271999C185.107 0.271999 185.891 0.431999 186.659 0.751999C187.427 1.072 188.163 1.424 188.867 1.808C189.603 2.192 190.291 2.544 190.931 2.864C191.603 3.152 192.211 3.296 192.755 3.296C193.491 3.296 194.099 3.04 194.579 2.528C195.059 1.984 195.363 1.248 195.491 0.319999H198.755C198.627 2.24 198.083 3.824 197.123 5.072C196.163 6.288 194.819 6.896 193.091 6.896C192.291 6.896 191.507 6.736 190.739 6.416C189.971 6.096 189.219 5.744 188.483 5.36C187.779 4.976 187.107 4.64 186.467 4.352C185.827 4.032 185.235 3.872 184.691 3.872C183.955 3.872 183.347 4.144 182.867 4.688C182.419 5.2 182.115 5.936 181.955 6.896H178.643ZM192.34 6.896C192.5 4.88 193.06 3.28 194.02 2.096C194.98 0.879999 196.308 0.271999 198.004 0.271999C198.804 0.271999 199.588 0.431999 200.356 0.751999C201.124 1.072 201.86 1.424 202.564 1.808C203.3 2.192 203.988 2.544 204.628 2.864C205.3 3.152 205.908 3.296 206.452 3.296C207.188 3.296 207.796 3.04 208.276 2.528C208.756 1.984 209.06 1.248 209.188 0.319999H212.452C212.324 2.24 211.78 3.824 210.82 5.072C209.86 6.288 208.516 6.896 206.788 6.896C205.988 6.896 205.204 6.736 204.436 6.416C203.668 6.096 202.916 5.744 202.18 5.36C201.476 4.976 200.804 4.64 200.164 4.352C199.524 4.032 198.932 3.872 198.388 3.872C197.652 3.872 197.044 4.144 196.564 4.688C196.116 5.2 195.812 5.936 195.652 6.896H192.34ZM206.037 6.896C206.197 4.88 206.757 3.28 207.717 2.096C208.677 0.879999 210.005 0.271999 211.701 0.271999C212.501 0.271999 213.285 0.431999 214.053 0.751999C214.821 1.072 215.557 1.424 216.261 1.808C216.997 2.192 217.685 2.544 218.325 2.864C218.997 3.152 219.605 3.296 220.149 3.296C220.885 3.296 221.493 3.04 221.973 2.528C222.453 1.984 222.757 1.248 222.885 0.319999H226.149C226.021 2.24 225.477 3.824 224.517 5.072C223.557 6.288 222.213 6.896 220.485 6.896C219.685 6.896 218.901 6.736 218.133 6.416C217.365 6.096 216.613 5.744 215.877 5.36C215.173 4.976 214.501 4.64 213.861 4.352C213.221 4.032 212.629 3.872 212.085 3.872C211.349 3.872 210.741 4.144 210.261 4.688C209.813 5.2 209.509 5.936 209.349 6.896H206.037ZM219.734 6.896C219.894 4.88 220.454 3.28 221.414 2.096C222.374 0.879999 223.702 0.271999 225.398 0.271999C226.198 0.271999 226.982 0.431999 227.75 0.751999C228.518 1.072 229.254 1.424 229.958 1.808C230.694 2.192 231.382 2.544 232.022 2.864C232.694 3.152 233.302 3.296 233.846 3.296C234.582 3.296 235.19 3.04 235.67 2.528C236.15 1.984 236.454 1.248 236.582 0.319999H239.846C239.718 2.24 239.174 3.824 238.214 5.072C237.254 6.288 235.91 6.896 234.182 6.896C233.382 6.896 232.598 6.736 231.83 6.416C231.062 6.096 230.31 5.744 229.574 5.36C228.87 4.976 228.198 4.64 227.558 4.352C226.918 4.032 226.326 3.872 225.782 3.872C225.046 3.872 224.438 4.144 223.958 4.688C223.51 5.2 223.206 5.936 223.046 6.896H219.734Z" fill="url(#paint0_linear_4_648)"/>
<defs>
<linearGradient id="paint0_linear_4_648" x1="-10.5294" y1="-14.8837" x2="260.664" y2="7.48681" gradientUnits="userSpaceOnUse">
<stop stop-color="#C6F1F7"/>
<stop offset="0.364583" stop-color="#F983E9"/>
<stop offset="0.739583" stop-color="#B877FF"/>
<stop offset="1" stop-color="#C2E9CD"/>
</linearGradient>
</defs>
</svg>
