<svg width="197" height="6" viewBox="0 0 197 6" fill="none" xmlns="http://www.w3.org/2000/svg">
<path d="M0.056 5.264C0.162667 3.92 0.536 2.85333 1.176 2.064C1.816 1.25333 2.70133 0.848 3.832 0.848C4.36533 0.848 4.888 0.954666 5.4 1.168C5.912 1.38133 6.40267 1.616 6.872 1.872C7.36267 2.128 7.82133 2.36267 8.248 2.576C8.696 2.768 9.10133 2.864 9.464 2.864C9.95467 2.864 10.36 2.69333 10.68 2.352C11 1.98933 11.2027 1.49867 11.288 0.879999H13.464C13.3787 2.16 13.016 3.216 12.376 4.048C11.736 4.85867 10.84 5.264 9.688 5.264C9.15467 5.264 8.632 5.15733 8.12 4.944C7.608 4.73067 7.10667 4.496 6.616 4.24C6.14667 3.984 5.69867 3.76 5.272 3.568C4.84533 3.35467 4.45067 3.248 4.088 3.248C3.59733 3.248 3.192 3.42933 2.872 3.792C2.57333 4.13333 2.37067 4.624 2.264 5.264H0.056ZM9.18725 5.264C9.29392 3.92 9.66725 2.85333 10.3073 2.064C10.9473 1.25333 11.8326 0.848 12.9633 0.848C13.4966 0.848 14.0193 0.954666 14.5313 1.168C15.0433 1.38133 15.5339 1.616 16.0033 1.872C16.4939 2.128 16.9526 2.36267 17.3793 2.576C17.8273 2.768 18.2326 2.864 18.5953 2.864C19.0859 2.864 19.4913 2.69333 19.8113 2.352C20.1313 1.98933 20.3339 1.49867 20.4193 0.879999H22.5953C22.5099 2.16 22.1473 3.216 21.5073 4.048C20.8673 4.85867 19.9713 5.264 18.8193 5.264C18.2859 5.264 17.7633 5.15733 17.2513 4.944C16.7393 4.73067 16.2379 4.496 15.7473 4.24C15.2779 3.984 14.8299 3.76 14.4033 3.568C13.9766 3.35467 13.5819 3.248 13.2193 3.248C12.7286 3.248 12.3233 3.42933 12.0033 3.792C11.7046 4.13333 11.5019 4.624 11.3953 5.264H9.18725ZM18.3185 5.264C18.4252 3.92 18.7985 2.85333 19.4385 2.064C20.0785 1.25333 20.9638 0.848 22.0945 0.848C22.6278 0.848 23.1505 0.954666 23.6625 1.168C24.1745 1.38133 24.6652 1.616 25.1345 1.872C25.6252 2.128 26.0838 2.36267 26.5105 2.576C26.9585 2.768 27.3638 2.864 27.7265 2.864C28.2172 2.864 28.6225 2.69333 28.9425 2.352C29.2625 1.98933 29.4652 1.49867 29.5505 0.879999H31.7265C31.6412 2.16 31.2785 3.216 30.6385 4.048C29.9985 4.85867 29.1025 5.264 27.9505 5.264C27.4172 5.264 26.8945 5.15733 26.3825 4.944C25.8705 4.73067 25.3692 4.496 24.8785 4.24C24.4092 3.984 23.9612 3.76 23.5345 3.568C23.1078 3.35467 22.7132 3.248 22.3505 3.248C21.8598 3.248 21.4545 3.42933 21.1345 3.792C20.8358 4.13333 20.6332 4.624 20.5265 5.264H18.3185ZM27.4497 5.264C27.5564 3.92 27.9297 2.85333 28.5697 2.064C29.2097 1.25333 30.0951 0.848 31.2257 0.848C31.7591 0.848 32.2817 0.954666 32.7937 1.168C33.3057 1.38133 33.7964 1.616 34.2657 1.872C34.7564 2.128 35.2151 2.36267 35.6417 2.576C36.0897 2.768 36.4951 2.864 36.8577 2.864C37.3484 2.864 37.7537 2.69333 38.0737 2.352C38.3937 1.98933 38.5964 1.49867 38.6817 0.879999H40.8577C40.7724 2.16 40.4097 3.216 39.7697 4.048C39.1297 4.85867 38.2337 5.264 37.0817 5.264C36.5484 5.264 36.0257 5.15733 35.5138 4.944C35.0017 4.73067 34.5004 4.496 34.0097 4.24C33.5404 3.984 33.0924 3.76 32.6657 3.568C32.2391 3.35467 31.8444 3.248 31.4817 3.248C30.9911 3.248 30.5857 3.42933 30.2657 3.792C29.9671 4.13333 29.7644 4.624 29.6577 5.264H27.4497ZM36.581 5.264C36.6877 3.92 37.061 2.85333 37.701 2.064C38.341 1.25333 39.2263 0.848 40.357 0.848C40.8903 0.848 41.413 0.954666 41.925 1.168C42.437 1.38133 42.9277 1.616 43.397 1.872C43.8877 2.128 44.3463 2.36267 44.773 2.576C45.221 2.768 45.6263 2.864 45.989 2.864C46.4797 2.864 46.885 2.69333 47.205 2.352C47.525 1.98933 47.7277 1.49867 47.813 0.879999H49.989C49.9037 2.16 49.541 3.216 48.901 4.048C48.261 4.85867 47.365 5.264 46.213 5.264C45.6797 5.264 45.157 5.15733 44.645 4.944C44.133 4.73067 43.6317 4.496 43.141 4.24C42.6717 3.984 42.2237 3.76 41.797 3.568C41.3703 3.35467 40.9757 3.248 40.613 3.248C40.1223 3.248 39.717 3.42933 39.397 3.792C39.0983 4.13333 38.8957 4.624 38.789 5.264H36.581ZM45.7122 5.264C45.8189 3.92 46.1923 2.85333 46.8323 2.064C47.4723 1.25333 48.3576 0.848 49.4883 0.848C50.0216 0.848 50.5443 0.954666 51.0563 1.168C51.5683 1.38133 52.0589 1.616 52.5283 1.872C53.0189 2.128 53.4776 2.36267 53.9043 2.576C54.3523 2.768 54.7576 2.864 55.1203 2.864C55.6109 2.864 56.0163 2.69333 56.3363 2.352C56.6563 1.98933 56.8589 1.49867 56.9443 0.879999H59.1203C59.0349 2.16 58.6723 3.216 58.0323 4.048C57.3923 4.85867 56.4963 5.264 55.3443 5.264C54.8109 5.264 54.2883 5.15733 53.7763 4.944C53.2643 4.73067 52.7629 4.496 52.2723 4.24C51.8029 3.984 51.3549 3.76 50.9283 3.568C50.5016 3.35467 50.1069 3.248 49.7443 3.248C49.2536 3.248 48.8483 3.42933 48.5283 3.792C48.2296 4.13333 48.0269 4.624 47.9203 5.264H45.7122ZM54.8435 5.264C54.9502 3.92 55.3235 2.85333 55.9635 2.064C56.6035 1.25333 57.4888 0.848 58.6195 0.848C59.1528 0.848 59.6755 0.954666 60.1875 1.168C60.6995 1.38133 61.1902 1.616 61.6595 1.872C62.1502 2.128 62.6088 2.36267 63.0355 2.576C63.4835 2.768 63.8888 2.864 64.2515 2.864C64.7422 2.864 65.1475 2.69333 65.4675 2.352C65.7875 1.98933 65.9902 1.49867 66.0755 0.879999H68.2515C68.1662 2.16 67.8035 3.216 67.1635 4.048C66.5235 4.85867 65.6275 5.264 64.4755 5.264C63.9422 5.264 63.4195 5.15733 62.9075 4.944C62.3955 4.73067 61.8942 4.496 61.4035 4.24C60.9342 3.984 60.4862 3.76 60.0595 3.568C59.6328 3.35467 59.2382 3.248 58.8755 3.248C58.3848 3.248 57.9795 3.42933 57.6595 3.792C57.3608 4.13333 57.1582 4.624 57.0515 5.264H54.8435ZM63.9748 5.264C64.0814 3.92 64.4548 2.85333 65.0948 2.064C65.7348 1.25333 66.6201 0.848 67.7508 0.848C68.2841 0.848 68.8068 0.954666 69.3188 1.168C69.8308 1.38133 70.3214 1.616 70.7908 1.872C71.2814 2.128 71.7401 2.36267 72.1668 2.576C72.6148 2.768 73.0201 2.864 73.3828 2.864C73.8734 2.864 74.2788 2.69333 74.5988 2.352C74.9188 1.98933 75.1214 1.49867 75.2068 0.879999H77.3828C77.2974 2.16 76.9348 3.216 76.2948 4.048C75.6548 4.85867 74.7588 5.264 73.6068 5.264C73.0734 5.264 72.5508 5.15733 72.0388 4.944C71.5268 4.73067 71.0254 4.496 70.5348 4.24C70.0654 3.984 69.6174 3.76 69.1908 3.568C68.7641 3.35467 68.3694 3.248 68.0068 3.248C67.5161 3.248 67.1108 3.42933 66.7908 3.792C66.4921 4.13333 66.2894 4.624 66.1828 5.264H63.9748ZM73.106 5.264C73.2127 3.92 73.586 2.85333 74.226 2.064C74.866 1.25333 75.7513 0.848 76.882 0.848C77.4153 0.848 77.938 0.954666 78.45 1.168C78.962 1.38133 79.4527 1.616 79.922 1.872C80.4127 2.128 80.8713 2.36267 81.298 2.576C81.746 2.768 82.1513 2.864 82.514 2.864C83.0047 2.864 83.41 2.69333 83.73 2.352C84.05 1.98933 84.2527 1.49867 84.338 0.879999H86.514C86.4287 2.16 86.066 3.216 85.426 4.048C84.786 4.85867 83.89 5.264 82.738 5.264C82.2047 5.264 81.682 5.15733 81.17 4.944C80.658 4.73067 80.1567 4.496 79.666 4.24C79.1967 3.984 78.7487 3.76 78.322 3.568C77.8953 3.35467 77.5007 3.248 77.138 3.248C76.6473 3.248 76.242 3.42933 75.922 3.792C75.6233 4.13333 75.4207 4.624 75.314 5.264H73.106ZM82.2373 5.264C82.3439 3.92 82.7173 2.85333 83.3573 2.064C83.9973 1.25333 84.8826 0.848 86.0133 0.848C86.5466 0.848 87.0693 0.954666 87.5813 1.168C88.0933 1.38133 88.5839 1.616 89.0533 1.872C89.5439 2.128 90.0026 2.36267 90.4293 2.576C90.8773 2.768 91.2826 2.864 91.6453 2.864C92.1359 2.864 92.5413 2.69333 92.8613 2.352C93.1813 1.98933 93.3839 1.49867 93.4693 0.879999H95.6453C95.5599 2.16 95.1973 3.216 94.5573 4.048C93.9173 4.85867 93.0213 5.264 91.8693 5.264C91.3359 5.264 90.8133 5.15733 90.3013 4.944C89.7893 4.73067 89.2879 4.496 88.7973 4.24C88.3279 3.984 87.8799 3.76 87.4533 3.568C87.0266 3.35467 86.6319 3.248 86.2693 3.248C85.7786 3.248 85.3733 3.42933 85.0533 3.792C84.7546 4.13333 84.5519 4.624 84.4453 5.264H82.2373ZM91.3685 5.264C91.4752 3.92 91.8485 2.85333 92.4885 2.064C93.1285 1.25333 94.0138 0.848 95.1445 0.848C95.6778 0.848 96.2005 0.954666 96.7125 1.168C97.2245 1.38133 97.7152 1.616 98.1845 1.872C98.6752 2.128 99.1338 2.36267 99.5605 2.576C100.009 2.768 100.414 2.864 100.777 2.864C101.267 2.864 101.673 2.69333 101.993 2.352C102.313 1.98933 102.515 1.49867 102.601 0.879999H104.777C104.691 2.16 104.329 3.216 103.689 4.048C103.049 4.85867 102.153 5.264 101.001 5.264C100.467 5.264 99.9445 5.15733 99.4325 4.944C98.9205 4.73067 98.4192 4.496 97.9285 4.24C97.4592 3.984 97.0112 3.76 96.5845 3.568C96.1578 3.35467 95.7632 3.248 95.4005 3.248C94.9098 3.248 94.5045 3.42933 94.1845 3.792C93.8858 4.13333 93.6832 4.624 93.5765 5.264H91.3685ZM100.5 5.264C100.606 3.92 100.98 2.85333 101.62 2.064C102.26 1.25333 103.145 0.848 104.276 0.848C104.809 0.848 105.332 0.954666 105.844 1.168C106.356 1.38133 106.846 1.616 107.316 1.872C107.806 2.128 108.265 2.36267 108.692 2.576C109.14 2.768 109.545 2.864 109.908 2.864C110.398 2.864 110.804 2.69333 111.124 2.352C111.444 1.98933 111.646 1.49867 111.732 0.879999H113.908C113.822 2.16 113.46 3.216 112.82 4.048C112.18 4.85867 111.284 5.264 110.132 5.264C109.598 5.264 109.076 5.15733 108.564 4.944C108.052 4.73067 107.55 4.496 107.06 4.24C106.59 3.984 106.142 3.76 105.716 3.568C105.289 3.35467 104.894 3.248 104.532 3.248C104.041 3.248 103.636 3.42933 103.316 3.792C103.017 4.13333 102.814 4.624 102.708 5.264H100.5ZM109.631 5.264C109.738 3.92 110.111 2.85333 110.751 2.064C111.391 1.25333 112.276 0.848 113.407 0.848C113.94 0.848 114.463 0.954666 114.975 1.168C115.487 1.38133 115.978 1.616 116.447 1.872C116.938 2.128 117.396 2.36267 117.823 2.576C118.271 2.768 118.676 2.864 119.039 2.864C119.53 2.864 119.935 2.69333 120.255 2.352C120.575 1.98933 120.778 1.49867 120.863 0.879999H123.039C122.954 2.16 122.591 3.216 121.951 4.048C121.311 4.85867 120.415 5.264 119.263 5.264C118.73 5.264 118.207 5.15733 117.695 4.944C117.183 4.73067 116.682 4.496 116.191 4.24C115.722 3.984 115.274 3.76 114.847 3.568C114.42 3.35467 114.026 3.248 113.663 3.248C113.172 3.248 112.767 3.42933 112.447 3.792C112.148 4.13333 111.946 4.624 111.839 5.264H109.631ZM118.762 5.264C118.869 3.92 119.242 2.85333 119.882 2.064C120.522 1.25333 121.408 0.848 122.538 0.848C123.072 0.848 123.594 0.954666 124.106 1.168C124.618 1.38133 125.109 1.616 125.578 1.872C126.069 2.128 126.528 2.36267 126.954 2.576C127.402 2.768 127.808 2.864 128.17 2.864C128.661 2.864 129.066 2.69333 129.386 2.352C129.706 1.98933 129.909 1.49867 129.994 0.879999H132.17C132.085 2.16 131.722 3.216 131.082 4.048C130.442 4.85867 129.546 5.264 128.394 5.264C127.861 5.264 127.338 5.15733 126.826 4.944C126.314 4.73067 125.813 4.496 125.322 4.24C124.853 3.984 124.405 3.76 123.978 3.568C123.552 3.35467 123.157 3.248 122.794 3.248C122.304 3.248 121.898 3.42933 121.578 3.792C121.28 4.13333 121.077 4.624 120.97 5.264H118.762ZM127.894 5.264C128 3.92 128.374 2.85333 129.014 2.064C129.654 1.25333 130.539 0.848 131.67 0.848C132.203 0.848 132.726 0.954666 133.238 1.168C133.75 1.38133 134.24 1.616 134.71 1.872C135.2 2.128 135.659 2.36267 136.086 2.576C136.534 2.768 136.939 2.864 137.302 2.864C137.792 2.864 138.198 2.69333 138.518 2.352C138.838 1.98933 139.04 1.49867 139.126 0.879999H141.302C141.216 2.16 140.854 3.216 140.214 4.048C139.574 4.85867 138.678 5.264 137.526 5.264C136.992 5.264 136.47 5.15733 135.958 4.944C135.446 4.73067 134.944 4.496 134.454 4.24C133.984 3.984 133.536 3.76 133.11 3.568C132.683 3.35467 132.288 3.248 131.926 3.248C131.435 3.248 131.03 3.42933 130.71 3.792C130.411 4.13333 130.208 4.624 130.102 5.264H127.894ZM137.025 5.264C137.131 3.92 137.505 2.85333 138.145 2.064C138.785 1.25333 139.67 0.848 140.801 0.848C141.334 0.848 141.857 0.954666 142.369 1.168C142.881 1.38133 143.371 1.616 143.841 1.872C144.331 2.128 144.79 2.36267 145.217 2.576C145.665 2.768 146.07 2.864 146.433 2.864C146.923 2.864 147.329 2.69333 147.649 2.352C147.969 1.98933 148.171 1.49867 148.257 0.879999H150.433C150.347 2.16 149.985 3.216 149.345 4.048C148.705 4.85867 147.809 5.264 146.657 5.264C146.123 5.264 145.601 5.15733 145.089 4.944C144.577 4.73067 144.075 4.496 143.585 4.24C143.115 3.984 142.667 3.76 142.241 3.568C141.814 3.35467 141.419 3.248 141.057 3.248C140.566 3.248 140.161 3.42933 139.841 3.792C139.542 4.13333 139.339 4.624 139.233 5.264H137.025ZM146.156 5.264C146.263 3.92 146.636 2.85333 147.276 2.064C147.916 1.25333 148.801 0.848 149.932 0.848C150.465 0.848 150.988 0.954666 151.5 1.168C152.012 1.38133 152.503 1.616 152.972 1.872C153.463 2.128 153.921 2.36267 154.348 2.576C154.796 2.768 155.201 2.864 155.564 2.864C156.055 2.864 156.46 2.69333 156.78 2.352C157.1 1.98933 157.303 1.49867 157.388 0.879999H159.564C159.479 2.16 159.116 3.216 158.476 4.048C157.836 4.85867 156.94 5.264 155.788 5.264C155.255 5.264 154.732 5.15733 154.22 4.944C153.708 4.73067 153.207 4.496 152.716 4.24C152.247 3.984 151.799 3.76 151.372 3.568C150.945 3.35467 150.551 3.248 150.188 3.248C149.697 3.248 149.292 3.42933 148.972 3.792C148.673 4.13333 148.471 4.624 148.364 5.264H146.156ZM155.287 5.264C155.394 3.92 155.767 2.85333 156.407 2.064C157.047 1.25333 157.933 0.848 159.063 0.848C159.597 0.848 160.119 0.954666 160.631 1.168C161.143 1.38133 161.634 1.616 162.103 1.872C162.594 2.128 163.053 2.36267 163.479 2.576C163.927 2.768 164.333 2.864 164.695 2.864C165.186 2.864 165.591 2.69333 165.911 2.352C166.231 1.98933 166.434 1.49867 166.519 0.879999H168.695C168.61 2.16 168.247 3.216 167.607 4.048C166.967 4.85867 166.071 5.264 164.919 5.264C164.386 5.264 163.863 5.15733 163.351 4.944C162.839 4.73067 162.338 4.496 161.847 4.24C161.378 3.984 160.93 3.76 160.503 3.568C160.077 3.35467 159.682 3.248 159.319 3.248C158.829 3.248 158.423 3.42933 158.103 3.792C157.805 4.13333 157.602 4.624 157.495 5.264H155.287ZM164.419 5.264C164.525 3.92 164.899 2.85333 165.539 2.064C166.179 1.25333 167.064 0.848 168.195 0.848C168.728 0.848 169.251 0.954666 169.763 1.168C170.275 1.38133 170.765 1.616 171.235 1.872C171.725 2.128 172.184 2.36267 172.611 2.576C173.059 2.768 173.464 2.864 173.827 2.864C174.317 2.864 174.723 2.69333 175.043 2.352C175.363 1.98933 175.565 1.49867 175.651 0.879999H177.827C177.741 2.16 177.379 3.216 176.739 4.048C176.099 4.85867 175.203 5.264 174.051 5.264C173.517 5.264 172.995 5.15733 172.483 4.944C171.971 4.73067 171.469 4.496 170.979 4.24C170.509 3.984 170.061 3.76 169.635 3.568C169.208 3.35467 168.813 3.248 168.451 3.248C167.96 3.248 167.555 3.42933 167.235 3.792C166.936 4.13333 166.733 4.624 166.627 5.264H164.419ZM173.55 5.264C173.656 3.92 174.03 2.85333 174.67 2.064C175.31 1.25333 176.195 0.848 177.326 0.848C177.859 0.848 178.382 0.954666 178.894 1.168C179.406 1.38133 179.896 1.616 180.366 1.872C180.856 2.128 181.315 2.36267 181.742 2.576C182.19 2.768 182.595 2.864 182.958 2.864C183.448 2.864 183.854 2.69333 184.174 2.352C184.494 1.98933 184.696 1.49867 184.782 0.879999H186.958C186.872 2.16 186.51 3.216 185.87 4.048C185.23 4.85867 184.334 5.264 183.182 5.264C182.648 5.264 182.126 5.15733 181.614 4.944C181.102 4.73067 180.6 4.496 180.11 4.24C179.64 3.984 179.192 3.76 178.766 3.568C178.339 3.35467 177.944 3.248 177.582 3.248C177.091 3.248 176.686 3.42933 176.366 3.792C176.067 4.13333 175.864 4.624 175.758 5.264H173.55ZM182.681 5.264C182.788 3.92 183.161 2.85333 183.801 2.064C184.441 1.25333 185.326 0.848 186.457 0.848C186.99 0.848 187.513 0.954666 188.025 1.168C188.537 1.38133 189.028 1.616 189.497 1.872C189.988 2.128 190.446 2.36267 190.873 2.576C191.321 2.768 191.726 2.864 192.089 2.864C192.58 2.864 192.985 2.69333 193.305 2.352C193.625 1.98933 193.828 1.49867 193.913 0.879999H196.089C196.004 2.16 195.641 3.216 195.001 4.048C194.361 4.85867 193.465 5.264 192.313 5.264C191.78 5.264 191.257 5.15733 190.745 4.944C190.233 4.73067 189.732 4.496 189.241 4.24C188.772 3.984 188.324 3.76 187.897 3.568C187.47 3.35467 187.076 3.248 186.713 3.248C186.222 3.248 185.817 3.42933 185.497 3.792C185.198 4.13333 184.996 4.624 184.889 5.264H182.681Z" fill="url(#paint0_linear_4_1046)"/>
<defs>
<linearGradient id="paint0_linear_4_1046" x1="-8.80393" y1="-9.25579" x2="212.523" y2="13.1711" gradientUnits="userSpaceOnUse">
<stop stop-color="#C6F1F7"/>
<stop offset="0.364583" stop-color="#F983E9"/>
<stop offset="0.739583" stop-color="#B877FF"/>
<stop offset="1" stop-color="#C2E9CD"/>
</linearGradient>
</defs>
</svg>
