<svg width="117" height="7" viewBox="0 0 117 7" fill="none" xmlns="http://www.w3.org/2000/svg">
<path d="M0.584 6.896C0.744 4.88 1.304 3.28 2.264 2.096C3.224 0.879999 4.552 0.271999 6.248 0.271999C7.048 0.271999 7.832 0.431999 8.6 0.751999C9.368 1.072 10.104 1.424 10.808 1.808C11.544 2.192 12.232 2.544 12.872 2.864C13.544 3.152 14.152 3.296 14.696 3.296C15.432 3.296 16.04 3.04 16.52 2.528C17 1.984 17.304 1.248 17.432 0.319999H20.696C20.568 2.24 20.024 3.824 19.064 5.072C18.104 6.288 16.76 6.896 15.032 6.896C14.232 6.896 13.448 6.736 12.68 6.416C11.912 6.096 11.16 5.744 10.424 5.36C9.72 4.976 9.048 4.64 8.408 4.352C7.768 4.032 7.176 3.872 6.632 3.872C5.896 3.872 5.288 4.144 4.808 4.688C4.36 5.2 4.056 5.936 3.896 6.896H0.584ZM14.2809 6.896C14.4409 4.88 15.0009 3.28 15.9609 2.096C16.9209 0.879999 18.2489 0.271999 19.9449 0.271999C20.7449 0.271999 21.5289 0.431999 22.2969 0.751999C23.0649 1.072 23.8009 1.424 24.5049 1.808C25.2409 2.192 25.9289 2.544 26.5689 2.864C27.2409 3.152 27.8489 3.296 28.3929 3.296C29.1289 3.296 29.7369 3.04 30.2169 2.528C30.6969 1.984 31.0009 1.248 31.1289 0.319999H34.3929C34.2649 2.24 33.7209 3.824 32.7609 5.072C31.8009 6.288 30.4569 6.896 28.7289 6.896C27.9289 6.896 27.1449 6.736 26.3769 6.416C25.6089 6.096 24.8569 5.744 24.1209 5.36C23.4169 4.976 22.7449 4.64 22.1049 4.352C21.4649 4.032 20.8729 3.872 20.3289 3.872C19.5929 3.872 18.9849 4.144 18.5049 4.688C18.0569 5.2 17.7529 5.936 17.5929 6.896H14.2809ZM27.9777 6.896C28.1377 4.88 28.6977 3.28 29.6577 2.096C30.6177 0.879999 31.9457 0.271999 33.6417 0.271999C34.4417 0.271999 35.2257 0.431999 35.9937 0.751999C36.7617 1.072 37.4977 1.424 38.2017 1.808C38.9378 2.192 39.6258 2.544 40.2657 2.864C40.9377 3.152 41.5457 3.296 42.0898 3.296C42.8258 3.296 43.4338 3.04 43.9137 2.528C44.3938 1.984 44.6978 1.248 44.8257 0.319999H48.0898C47.9618 2.24 47.4177 3.824 46.4577 5.072C45.4977 6.288 44.1537 6.896 42.4258 6.896C41.6258 6.896 40.8418 6.736 40.0738 6.416C39.3057 6.096 38.5537 5.744 37.8177 5.36C37.1137 4.976 36.4417 4.64 35.8017 4.352C35.1617 4.032 34.5697 3.872 34.0257 3.872C33.2897 3.872 32.6817 4.144 32.2017 4.688C31.7537 5.2 31.4497 5.936 31.2897 6.896H27.9777ZM41.6746 6.896C41.8346 4.88 42.3946 3.28 43.3546 2.096C44.3146 0.879999 45.6426 0.271999 47.3386 0.271999C48.1386 0.271999 48.9226 0.431999 49.6906 0.751999C50.4586 1.072 51.1946 1.424 51.8986 1.808C52.6346 2.192 53.3226 2.544 53.9626 2.864C54.6346 3.152 55.2426 3.296 55.7866 3.296C56.5226 3.296 57.1306 3.04 57.6106 2.528C58.0906 1.984 58.3946 1.248 58.5226 0.319999H61.7866C61.6586 2.24 61.1146 3.824 60.1546 5.072C59.1946 6.288 57.8506 6.896 56.1226 6.896C55.3226 6.896 54.5386 6.736 53.7706 6.416C53.0026 6.096 52.2506 5.744 51.5146 5.36C50.8106 4.976 50.1386 4.64 49.4986 4.352C48.8586 4.032 48.2666 3.872 47.7226 3.872C46.9866 3.872 46.3786 4.144 45.8986 4.688C45.4506 5.2 45.1466 5.936 44.9866 6.896H41.6746ZM55.3715 6.896C55.5315 4.88 56.0915 3.28 57.0515 2.096C58.0115 0.879999 59.3395 0.271999 61.0355 0.271999C61.8355 0.271999 62.6195 0.431999 63.3875 0.751999C64.1555 1.072 64.8915 1.424 65.5955 1.808C66.3315 2.192 67.0195 2.544 67.6595 2.864C68.3315 3.152 68.9395 3.296 69.4835 3.296C70.2195 3.296 70.8275 3.04 71.3075 2.528C71.7875 1.984 72.0915 1.248 72.2195 0.319999H75.4835C75.3555 2.24 74.8115 3.824 73.8515 5.072C72.8915 6.288 71.5475 6.896 69.8195 6.896C69.0195 6.896 68.2355 6.736 67.4675 6.416C66.6995 6.096 65.9475 5.744 65.2115 5.36C64.5075 4.976 63.8355 4.64 63.1955 4.352C62.5555 4.032 61.9635 3.872 61.4195 3.872C60.6835 3.872 60.0755 4.144 59.5955 4.688C59.1475 5.2 58.8435 5.936 58.6835 6.896H55.3715ZM69.0684 6.896C69.2284 4.88 69.7884 3.28 70.7484 2.096C71.7084 0.879999 73.0364 0.271999 74.7324 0.271999C75.5324 0.271999 76.3164 0.431999 77.0844 0.751999C77.8524 1.072 78.5884 1.424 79.2924 1.808C80.0284 2.192 80.7164 2.544 81.3564 2.864C82.0284 3.152 82.6364 3.296 83.1804 3.296C83.9164 3.296 84.5244 3.04 85.0044 2.528C85.4844 1.984 85.7884 1.248 85.9164 0.319999H89.1804C89.0524 2.24 88.5084 3.824 87.5484 5.072C86.5884 6.288 85.2444 6.896 83.5164 6.896C82.7164 6.896 81.9324 6.736 81.1644 6.416C80.3964 6.096 79.6444 5.744 78.9084 5.36C78.2044 4.976 77.5324 4.64 76.8924 4.352C76.2524 4.032 75.6604 3.872 75.1164 3.872C74.3804 3.872 73.7724 4.144 73.2924 4.688C72.8444 5.2 72.5404 5.936 72.3804 6.896H69.0684ZM82.7652 6.896C82.9252 4.88 83.4852 3.28 84.4452 2.096C85.4052 0.879999 86.7332 0.271999 88.4292 0.271999C89.2292 0.271999 90.0132 0.431999 90.7812 0.751999C91.5492 1.072 92.2852 1.424 92.9892 1.808C93.7252 2.192 94.4132 2.544 95.0532 2.864C95.7252 3.152 96.3332 3.296 96.8772 3.296C97.6132 3.296 98.2212 3.04 98.7012 2.528C99.1812 1.984 99.4852 1.248 99.6132 0.319999H102.877C102.749 2.24 102.205 3.824 101.245 5.072C100.285 6.288 98.9412 6.896 97.2132 6.896C96.4132 6.896 95.6292 6.736 94.8612 6.416C94.0932 6.096 93.3412 5.744 92.6052 5.36C91.9012 4.976 91.2292 4.64 90.5892 4.352C89.9492 4.032 89.3572 3.872 88.8132 3.872C88.0772 3.872 87.4692 4.144 86.9892 4.688C86.5412 5.2 86.2372 5.936 86.0772 6.896H82.7652ZM96.4621 6.896C96.6221 4.88 97.1821 3.28 98.1421 2.096C99.1021 0.879999 100.43 0.271999 102.126 0.271999C102.926 0.271999 103.71 0.431999 104.478 0.751999C105.246 1.072 105.982 1.424 106.686 1.808C107.422 2.192 108.11 2.544 108.75 2.864C109.422 3.152 110.03 3.296 110.574 3.296C111.31 3.296 111.918 3.04 112.398 2.528C112.878 1.984 113.182 1.248 113.31 0.319999H116.574C116.446 2.24 115.902 3.824 114.942 5.072C113.982 6.288 112.638 6.896 110.91 6.896C110.11 6.896 109.326 6.736 108.558 6.416C107.79 6.096 107.038 5.744 106.302 5.36C105.598 4.976 104.926 4.64 104.286 4.352C103.646 4.032 103.054 3.872 102.51 3.872C101.774 3.872 101.166 4.144 100.686 4.688C100.238 5.2 99.9341 5.936 99.7741 6.896H96.4621Z" fill="url(#paint0_linear_4_574)"/>
<defs>
<linearGradient id="paint0_linear_4_574" x1="-6.76471" y1="-14.8385" x2="157.989" y2="-6.54029" gradientUnits="userSpaceOnUse">
<stop stop-color="#C6F1F7"/>
<stop offset="0.364583" stop-color="#F983E9"/>
<stop offset="0.739583" stop-color="#B877FF"/>
<stop offset="1" stop-color="#C2E9CD"/>
</linearGradient>
</defs>
</svg>
